<svg width="14" height="15" viewBox="0 0 14 15" fill="none" xmlns="http://www.w3.org/2000/svg">
<path fill-rule="evenodd" clip-rule="evenodd" d="M6.06363 0.0515623C7.50798 -0.267569 8.55566 0.950933 8.55566 2.15569V12.8443C8.55566 14.0491 7.50798 15.2676 6.06363 14.9484C2.59314 14.1819 0 11.1387 0 7.5C0 3.86129 2.59314 0.818089 6.06363 0.0515623ZM10.3391 4.66981C10.485 4.52668 10.6828 4.44627 10.889 4.44627C11.0953 4.44627 11.2931 4.52668 11.4389 4.66981L13.7723 6.96023C13.9181 7.1034 14 7.29755 14 7.5C14 7.70245 13.9181 7.8966 13.7723 8.03977L11.4389 10.3302C11.2922 10.4693 11.0958 10.5462 10.8918 10.5445C10.6879 10.5427 10.4928 10.4624 10.3486 10.3209C10.2044 10.1793 10.1226 9.98785 10.1208 9.78767C10.119 9.58749 10.1974 9.39464 10.3391 9.25064L11.3448 8.26347H4.66672C4.46044 8.26347 4.26261 8.18304 4.11674 8.03986C3.97088 7.89668 3.88894 7.70249 3.88894 7.5C3.88894 7.29751 3.97088 7.10332 4.11674 6.96014C4.26261 6.81697 4.46044 6.73653 4.66672 6.73653H11.3448L10.3391 5.74936C10.1933 5.60618 10.1114 5.41203 10.1114 5.20958C10.1114 5.00714 10.1933 4.81298 10.3391 4.66981Z" fill="white"/>
</svg>
