<svg width="500" height="500" viewBox="0 0 500 500" fill="none" xmlns="http://www.w3.org/2000/svg">
<path d="M83.9999 400L73.3699 392.68C73.3699 392.68 67.2299 401.61 57.8499 395.39C56.0206 394.224 54.5997 392.517 53.7844 390.506C52.9691 388.496 52.7998 386.281 53.2999 384.17C53.6964 382.39 54.5083 380.73 55.6693 379.324C56.8302 377.918 58.3073 376.806 59.9799 376.08C63.8199 374.35 69.6299 374.37 75.9299 380.56L92.4099 356.56L81.8999 349.33L72.2499 363.33C72.2499 363.33 54.8899 357 43.7099 373.24C33.0199 388.78 44.4699 401.98 50.4399 406.08C54.9999 409.29 71.2499 418.88 83.9999 400Z" fill="#EBEBEB"/>
<path d="M85.1214 344.344L95.7817 351.679L102.635 341.719L91.9745 334.384L85.1214 344.344Z" fill="#EBEBEB"/>
<path d="M129.26 429.39L134.9 427.9C134.732 427.258 134.694 426.59 134.787 425.933C134.881 425.277 135.104 424.645 135.443 424.076C135.783 423.506 136.233 423.01 136.766 422.616C137.299 422.222 137.906 421.937 138.55 421.78C139.489 421.494 140.495 421.509 141.425 421.823C142.356 422.137 143.165 422.734 143.74 423.53C144.234 424.189 144.565 424.956 144.706 425.768C144.846 426.579 144.793 427.413 144.55 428.2C144.01 430.03 142.29 432.02 138.31 432.35L141.66 445.08L147.24 443.61L145.24 436.15C147.35 434.871 148.981 432.935 149.885 430.639C150.788 428.343 150.913 425.814 150.24 423.44C148.06 415.19 140.15 415.22 136.99 416.06C134.62 416.7 126.53 419.46 129.26 429.39Z" fill="#EBEBEB"/>
<path d="M148.026 446.194L142.36 447.689L143.756 452.978L149.422 451.483L148.026 446.194Z" fill="#EBEBEB"/>
<path d="M223 73.0698C225.853 71.3315 228.927 69.986 232.14 69.0698L234.02 60.0698L249.31 59.7998L251.51 68.7998C254.753 69.5942 257.875 70.8219 260.79 72.4498L268.52 67.3798L279.52 77.9998L274.73 85.8998C276.462 88.7594 277.807 91.8363 278.73 95.0498L287.78 96.9298L288.04 112.22L279.04 114.42C278.241 117.662 277.014 120.782 275.39 123.7L280.45 131.43L269.83 142.43L261.93 137.64C259.073 139.378 255.996 140.724 252.78 141.64L250.9 150.7L235.61 150.96L233.41 141.96C230.165 141.17 227.043 139.942 224.13 138.31L216.4 143.38L205.4 132.76L210.19 124.86C208.452 122.003 207.106 118.926 206.19 115.71L197.19 113.83L196.92 98.5398L205.92 96.3398C206.7 93.0774 207.917 89.9356 209.54 86.9998L204.47 79.2698L215.09 68.2698L223 73.0698ZM231.15 93.4398C228.9 95.7765 227.394 98.7278 226.822 101.921C226.25 105.113 226.637 108.404 227.935 111.376C229.233 114.349 231.383 116.87 234.114 118.62C236.845 120.371 240.033 121.272 243.276 121.211C246.519 121.149 249.671 120.127 252.333 118.275C254.995 116.422 257.048 113.821 258.233 110.802C259.417 107.782 259.679 104.479 258.986 101.31C258.293 98.1416 256.676 95.2495 254.34 92.9998C251.205 89.9853 247.002 88.3383 242.654 88.4208C238.306 88.5033 234.168 90.3085 231.15 93.4398Z" fill="#F5F5F5"/>
<path d="M159 41.19C160.648 40.2003 162.42 39.4336 164.27 38.91L165.35 33.69L174.16 33.54L175.43 38.71C177.296 39.1664 179.092 39.8728 180.77 40.81L185.22 37.89L191.52 44L188.76 48.55C189.755 50.1965 190.525 51.969 191.05 53.82L196.26 54.9L196.41 63.71L191.24 65C190.785 66.867 190.079 68.6635 189.14 70.34L192.06 74.79L185.94 81.13L181.39 78.37C179.743 79.3653 177.971 80.1355 176.12 80.66L175 85.86L166.19 86.02L165 80.85C163.134 80.3857 161.339 79.6762 159.66 78.74L155.21 81.66L148.87 75.54L151.59 71C150.593 69.3579 149.822 67.5886 149.3 65.74L144.09 64.65L143.93 55.84L149.11 54.58C149.564 52.7099 150.271 50.9101 151.21 49.23L148.29 44.78L154.41 38.45L159 41.19ZM163.69 52.93C162.385 54.2724 161.508 55.9722 161.17 57.8137C160.833 59.6552 161.05 61.5555 161.794 63.2734C162.538 64.9913 163.776 66.4494 165.35 67.4629C166.924 68.4763 168.764 68.9993 170.636 68.9655C172.508 68.9318 174.328 68.3428 175.864 67.2733C177.401 66.2038 178.585 64.7019 179.267 62.9583C179.949 61.2147 180.097 59.3079 179.693 57.4797C179.29 55.6516 178.352 53.9845 177 52.69C175.196 50.9537 172.778 50.0037 170.275 50.0487C167.772 50.0937 165.389 51.13 163.65 52.93H163.69Z" fill="#EBEBEB"/>
<path d="M440.07 204.71C441.714 203.717 443.483 202.947 445.33 202.42L446.42 197.21L455.22 197.06L456.49 202.23C458.36 202.685 460.16 203.391 461.84 204.33L466.29 201.41L472.62 207.53L469.86 212.08C470.855 213.727 471.625 215.499 472.15 217.35L477.37 218.43L477.52 227.24L472.35 228.51C471.885 230.374 471.179 232.169 470.25 233.85L473.16 238.3L467.05 244.64L462.5 241.88C460.854 242.875 459.081 243.646 457.23 244.17L456.14 249.38L447.34 249.54L446.07 244.36C444.203 243.905 442.407 243.199 440.73 242.26L436.27 245.18L429.94 239.06L432.7 234.51C431.703 232.864 430.933 231.092 430.41 229.24L425.2 228.16L425.04 219.35L430.21 218.08C430.675 216.216 431.381 214.421 432.31 212.74L429.4 208.29L435.51 201.95L440.07 204.71ZM444.76 216.44C443.461 217.784 442.59 219.483 442.257 221.322C441.923 223.162 442.143 225.058 442.888 226.773C443.632 228.487 444.869 229.942 446.441 230.954C448.012 231.965 449.849 232.488 451.718 232.456C453.587 232.424 455.404 231.838 456.94 230.773C458.476 229.708 459.662 228.211 460.347 226.472C461.032 224.733 461.187 222.83 460.79 221.003C460.394 219.177 459.465 217.509 458.12 216.21C456.316 214.472 453.897 213.52 451.392 213.563C448.888 213.606 446.503 214.641 444.76 216.44Z" fill="#EBEBEB"/>
<path d="M463.78 465.31C463.78 465.46 368.95 465.57 252.01 465.57C135.07 465.57 40.2202 465.46 40.2202 465.31C40.2202 465.16 135.02 465.05 252.01 465.05C369 465.05 463.78 465.17 463.78 465.31Z" fill="#263238"/>
<path d="M417.66 464.58L275.66 464.5C267.458 464.495 259.593 461.232 253.795 455.431C247.997 449.629 244.74 441.762 244.74 433.56L244.81 77.5599C244.829 69.3503 248.103 61.4833 253.915 55.6848C259.726 49.8863 267.601 46.6299 275.81 46.6299L417.81 46.7199C426.013 46.7252 433.877 49.9873 439.675 55.7891C445.473 61.5909 448.73 69.4576 448.73 77.6599L448.66 433.66C448.66 437.727 447.858 441.754 446.299 445.511C444.74 449.268 442.455 452.68 439.576 455.552C436.696 458.424 433.278 460.7 429.517 462.249C425.757 463.798 421.727 464.59 417.66 464.58Z" fill="#455A64"/>
<path d="M417.61 59.27H390.08C388.265 59.312 386.541 60.0728 385.287 61.3854C384.032 62.698 383.35 64.4549 383.39 66.27V71.27C383.431 73.0852 382.749 74.8421 381.494 76.1546C380.24 77.4672 378.516 78.2281 376.7 78.27H323.03C321.217 78.2255 319.495 77.4635 318.243 76.1512C316.991 74.8389 316.31 73.0835 316.35 71.27V66.27C316.391 64.4549 315.709 62.698 314.454 61.3854C313.2 60.0728 311.475 59.312 309.66 59.27H275.88C270.146 59.2647 264.644 61.5334 260.58 65.5787C256.516 69.624 254.222 75.1158 254.2 80.85L254.13 428.37C254.141 434.109 256.427 439.609 260.488 443.664C264.549 447.719 270.052 449.997 275.79 450L417.52 450.08C420.366 450.081 423.184 449.522 425.814 448.434C428.444 447.347 430.833 445.751 432.846 443.74C434.859 441.729 436.457 439.341 437.547 436.712C438.637 434.083 439.199 431.266 439.2 428.42L439.26 80.9C439.252 75.1624 436.968 69.6623 432.909 65.607C428.85 61.5518 423.348 59.2727 417.61 59.27Z" fill="white"/>
<path d="M439.25 132.31V80.54C439.148 74.8668 436.824 69.4601 432.777 65.4826C428.73 61.5051 423.284 59.2743 417.61 59.27H390.08C389.181 59.2895 388.295 59.4861 387.471 59.8486C386.648 60.2111 385.905 60.7324 385.283 61.3825C384.662 62.0327 384.175 62.7991 383.85 63.6378C383.525 64.4764 383.369 65.3709 383.39 66.27V71.27C383.43 73.0852 382.748 74.8421 381.494 76.1546C380.24 77.4672 378.515 78.2281 376.7 78.27H323.03C321.217 78.2255 319.495 77.4635 318.243 76.1512C316.991 74.8389 316.31 73.0835 316.35 71.27V66.27C316.39 64.4549 315.708 62.698 314.454 61.3854C313.2 60.0728 311.475 59.312 309.66 59.27H275.88C270.146 59.2647 264.644 61.5334 260.58 65.5787C256.516 69.624 254.221 75.1158 254.2 80.85V132.47H439.25V132.31Z" fill="#EBEBEB"/>
<path d="M291.94 202.53C304.328 202.53 314.37 192.51 314.37 180.15C314.37 167.79 304.328 157.77 291.94 157.77C279.552 157.77 269.51 167.79 269.51 180.15C269.51 192.51 279.552 202.53 291.94 202.53Z" fill="#E0E0E0"/>
<path d="M281.46 185.75L287.34 185.25L301.68 187.67L303.37 198.46L303.13 199.72C299.9 201.543 296.27 202.542 292.562 202.627C288.854 202.713 285.181 201.882 281.87 200.21L281.46 185.75Z" fill="#455A64"/>
<path d="M298.61 187.5C300.032 187.292 301.484 187.489 302.8 188.067C304.115 188.645 305.242 189.582 306.05 190.77C307.022 192.127 307.914 193.539 308.72 195C306.38 197.54 304.48 199.47 301.24 200.6L298.61 187.5Z" fill="#455A64"/>
<path d="M281.46 185.75C281.46 185.75 277.58 186.23 276.08 189.54C274.58 192.85 274.23 193.88 274.23 193.88C276.23 196.3 278.79 199.16 281.92 200.23C281.92 200.23 282.63 191.89 282.72 189.54C282.83 187 282.93 185.68 281.46 185.75Z" fill="#455A64"/>
<path d="M285 164.55C285.978 163.298 287.224 162.281 288.646 161.575C290.069 160.869 291.632 160.491 293.22 160.47C294.586 160.469 295.941 160.713 297.22 161.19C298.568 161.509 299.758 162.295 300.58 163.41C301.6 164.72 302.268 166.269 302.52 167.91C302.755 169.589 302.835 171.286 302.76 172.98C302.678 174.686 302.128 176.336 301.17 177.75L296.86 178.49C294.484 178.679 292.093 178.552 289.75 178.11C287.382 177.655 285.29 176.282 283.93 174.29C282.2 171.48 282.92 167.11 285 164.55Z" fill="#263238"/>
<path d="M280.84 177C280.884 176.512 281.039 176.041 281.292 175.622C281.545 175.203 281.89 174.846 282.3 174.58C282.721 174.327 283.211 174.214 283.7 174.258C284.188 174.301 284.651 174.498 285.02 174.82L285.7 175.62C286.225 175.863 286.661 176.262 286.948 176.764C287.235 177.266 287.358 177.845 287.3 178.42C287.226 178.996 286.986 179.537 286.61 179.979C286.233 180.421 285.737 180.745 285.18 180.91C284.624 181.068 284.037 181.08 283.475 180.945C282.913 180.81 282.395 180.533 281.97 180.14C281.554 179.738 281.236 179.246 281.04 178.702C280.844 178.157 280.776 177.575 280.84 177Z" fill="#263238"/>
<path d="M281.69 179.94C281.528 179.687 281.448 179.39 281.46 179.09C281.604 178.362 281.951 177.69 282.46 177.15C282.943 176.583 283.53 176.115 284.19 175.77C284.69 175.5 285.04 175.4 285.03 175.37C284.711 175.393 284.4 175.486 284.12 175.64C283.415 175.954 282.792 176.426 282.3 177.02C282.024 177.321 281.789 177.658 281.6 178.02C281.436 178.33 281.341 178.671 281.32 179.02C281.316 179.26 281.382 179.497 281.51 179.7C281.6 179.9 281.69 180 281.69 179.94Z" fill="#455A64"/>
<path d="M296.82 186.73V182.73C296.82 182.73 300.33 182.34 301.31 177.84C301.771 174.863 301.952 171.85 301.85 168.84C301.85 166.11 299.5 162.39 296.12 162.38L294.62 162.2L288.87 164.48C288.471 164.502 288.094 164.672 287.813 164.956C287.532 165.241 287.367 165.62 287.35 166.02L287.18 185.23L289.81 188.92C290.292 189.571 290.965 190.056 291.736 190.306C292.507 190.555 293.337 190.557 294.109 190.311C294.881 190.065 295.556 189.584 296.041 188.934C296.525 188.285 296.794 187.5 296.81 186.69L296.82 186.73Z" fill="#FFBE9D"/>
<path d="M294.53 176.8C294.561 176.569 294.679 176.358 294.86 176.21C295.025 176.072 295.229 175.991 295.444 175.978C295.658 175.966 295.87 176.022 296.05 176.14C296.234 176.283 296.377 176.472 296.465 176.688C296.552 176.904 296.582 177.139 296.55 177.37C296.45 177.509 296.322 177.625 296.173 177.712C296.025 177.798 295.861 177.852 295.69 177.87H295.53C295.398 177.873 295.266 177.85 295.142 177.802C295.018 177.754 294.906 177.682 294.81 177.59C294.709 177.486 294.632 177.362 294.583 177.226C294.535 177.089 294.517 176.944 294.53 176.8Z" fill="#EB996E"/>
<path d="M299.76 172C299.755 172.152 299.69 172.296 299.58 172.401C299.47 172.506 299.322 172.563 299.17 172.56C299.095 172.561 299.021 172.548 298.951 172.52C298.882 172.493 298.818 172.452 298.764 172.4C298.71 172.348 298.667 172.286 298.638 172.217C298.608 172.149 298.592 172.075 298.59 172C298.598 171.847 298.665 171.703 298.777 171.599C298.889 171.494 299.037 171.437 299.19 171.44C299.265 171.439 299.339 171.452 299.408 171.48C299.477 171.507 299.54 171.548 299.593 171.6C299.646 171.653 299.688 171.715 299.717 171.783C299.746 171.852 299.76 171.926 299.76 172Z" fill="#263238"/>
<path d="M300.72 170.56C300.64 170.63 300.21 170.28 299.59 170.25C298.97 170.22 298.48 170.51 298.42 170.43C298.36 170.35 298.47 170.26 298.68 170.12C298.963 169.951 299.291 169.871 299.62 169.89C299.946 169.903 300.259 170.022 300.51 170.23C300.69 170.39 300.75 170.53 300.72 170.56Z" fill="#263238"/>
<path d="M296.77 175.3C297.098 175.223 297.433 175.183 297.77 175.18C297.93 175.18 298.09 175.18 298.12 175.04C298.143 174.875 298.115 174.708 298.04 174.56L297.63 173.32C297.248 172.262 296.951 171.175 296.74 170.07C297.208 171.094 297.592 172.154 297.89 173.24C298.03 173.67 298.15 174.09 298.28 174.49C298.365 174.689 298.382 174.91 298.33 175.12C298.269 175.227 298.169 175.306 298.05 175.34C297.96 175.349 297.87 175.349 297.78 175.34C297.443 175.372 297.104 175.359 296.77 175.3Z" fill="#263238"/>
<path d="M296.8 182.74C294.653 182.643 292.576 181.951 290.8 180.74C290.8 180.74 292.25 183.97 296.8 183.8V182.74Z" fill="#EB996E"/>
<path d="M294.9 175.64C295.01 175.64 294.97 176.32 295.53 176.83C296.09 177.34 296.81 177.31 296.81 177.4C296.81 177.49 296.64 177.53 296.34 177.52C295.94 177.502 295.559 177.347 295.26 177.08C294.978 176.82 294.806 176.463 294.78 176.08C294.77 175.79 294.86 175.63 294.9 175.64Z" fill="#263238"/>
<path d="M300.59 168.2C300.48 168.35 300 168.2 299.44 168.2C298.88 168.2 298.44 168.34 298.29 168.2C298.14 168.06 298.29 167.98 298.51 167.84C298.786 167.667 299.105 167.573 299.43 167.57C299.758 167.561 300.081 167.648 300.36 167.82C300.57 168 300.64 168.13 300.59 168.2Z" fill="#263238"/>
<path d="M292.88 172C292.878 172.153 292.935 172.301 293.039 172.413C293.144 172.525 293.288 172.592 293.44 172.6C293.515 172.607 293.59 172.598 293.661 172.576C293.732 172.553 293.798 172.517 293.855 172.468C293.912 172.42 293.958 172.36 293.992 172.294C294.026 172.227 294.045 172.154 294.05 172.08C294.051 171.928 293.993 171.783 293.888 171.673C293.784 171.563 293.642 171.497 293.49 171.49C293.417 171.481 293.342 171.488 293.271 171.51C293.2 171.531 293.133 171.567 293.076 171.614C293.019 171.662 292.973 171.721 292.939 171.787C292.905 171.853 292.885 171.926 292.88 172Z" fill="#263238"/>
<path d="M292.12 170.34C292.19 170.42 292.64 170.1 293.27 170.11C293.9 170.12 294.35 170.44 294.42 170.37C294.49 170.3 294.42 170.2 294.18 170.05C293.913 169.854 293.591 169.749 293.26 169.75C292.936 169.74 292.617 169.834 292.35 170.02C292.15 170.17 292.08 170.3 292.12 170.34Z" fill="#263238"/>
<path d="M291.76 169C291.88 169.15 292.37 169 292.95 169C293.53 169 294.02 169.12 294.14 169C294.26 168.88 294.14 168.78 293.9 168.64C293.609 168.469 293.278 168.379 292.94 168.379C292.603 168.379 292.272 168.469 291.98 168.64C291.77 168.78 291.7 168.92 291.76 169Z" fill="#263238"/>
<path d="M288.11 173.69C288.11 173.35 287.79 172.53 287.45 172.46C286.57 172.27 284.96 172.26 284.82 174.52C284.63 177.61 287.82 177.16 287.82 177.07C287.82 176.98 288.05 174.85 288.11 173.69Z" fill="#FFBE9D"/>
<path d="M287 175.89C287 175.89 286.95 175.89 286.85 175.96C286.787 175.987 286.719 176.001 286.65 176.001C286.582 176.001 286.514 175.987 286.45 175.96C286.257 175.821 286.104 175.633 286.007 175.415C285.91 175.197 285.873 174.957 285.9 174.72C285.912 174.455 285.98 174.196 286.1 173.96C286.136 173.866 286.194 173.781 286.269 173.714C286.343 173.646 286.433 173.597 286.53 173.57C286.594 173.556 286.66 173.566 286.717 173.597C286.774 173.628 286.818 173.679 286.84 173.74C286.848 173.79 286.848 173.84 286.84 173.89C286.84 173.89 286.91 173.89 286.89 173.72C286.878 173.643 286.839 173.572 286.78 173.52C286.742 173.483 286.697 173.455 286.647 173.438C286.596 173.42 286.543 173.414 286.49 173.42C286.363 173.437 286.241 173.486 286.138 173.563C286.034 173.64 285.953 173.742 285.9 173.86C285.752 174.12 285.67 174.411 285.66 174.71C285.627 174.985 285.675 175.264 285.8 175.511C285.924 175.759 286.119 175.964 286.36 176.1C286.443 176.128 286.53 176.138 286.616 176.129C286.702 176.12 286.785 176.093 286.86 176.05C287 176 287 175.9 287 175.89Z" fill="#EB996E"/>
<path d="M287.33 172.47L288.11 173.28C291.51 170.04 298.16 161.91 297.79 162.39C296.238 161.817 294.569 161.638 292.93 161.87C290.4 162.3 285.61 163.56 285.68 166.53C285.829 168.6 286.39 170.619 287.33 172.47Z" fill="#263238"/>
<path d="M282.83 171.79C282.83 171.79 282.83 171.72 282.83 171.61C282.889 171.442 282.959 171.278 283.04 171.12C283.361 170.546 283.805 170.051 284.34 169.67C285.132 169.105 286.015 168.679 286.95 168.41C287.95 168.08 289.15 167.82 290.3 167.33C292.268 166.499 294.044 165.274 295.52 163.73C295.964 163.26 296.382 162.766 296.77 162.25L297.08 161.82C297.114 161.768 297.154 161.721 297.2 161.68L297.11 161.84C297.04 161.94 296.95 162.1 296.82 162.29C296.447 162.823 296.04 163.33 295.6 163.81C294.943 164.517 294.219 165.16 293.44 165.73C292.487 166.431 291.452 167.015 290.36 167.47C289.258 167.892 288.133 168.253 286.99 168.55C286.069 168.807 285.197 169.216 284.41 169.76C283.88 170.125 283.433 170.599 283.1 171.15C282.994 171.356 282.904 171.57 282.83 171.79Z" fill="#455A64"/>
<path d="M283.73 172.27C283.723 172.041 283.764 171.813 283.85 171.6C284.081 171.008 284.486 170.499 285.01 170.14C285.798 169.637 286.679 169.297 287.6 169.14C288.705 168.929 289.782 168.594 290.81 168.14C291.833 167.675 292.794 167.084 293.67 166.38C294.397 165.802 295.067 165.156 295.67 164.45C296.068 163.976 296.432 163.474 296.76 162.95C296.87 162.78 296.96 162.63 297.02 162.52C297.051 162.466 297.088 162.416 297.13 162.37C297.109 162.426 297.082 162.48 297.05 162.53L296.81 162.98C296.503 163.524 296.149 164.039 295.75 164.52C295.159 165.258 294.489 165.929 293.75 166.52C292.866 167.238 291.895 167.843 290.86 168.32C289.819 168.778 288.729 169.113 287.61 169.32C286.705 169.49 285.84 169.829 285.06 170.32C284.542 170.658 284.135 171.142 283.89 171.71C283.821 171.892 283.767 172.079 283.73 172.27Z" fill="#455A64"/>
<path d="M281.92 200.21C281.773 198.239 281.773 196.261 281.92 194.29C282.053 196.261 282.053 198.239 281.92 200.21Z" fill="#263238"/>
<path d="M303.14 199.79C303.114 199.457 303.114 199.123 303.14 198.79C303.2 197.956 303.17 197.118 303.05 196.29C302.895 195.464 302.653 194.656 302.33 193.88C302.179 193.559 302.058 193.224 301.97 192.88C302.166 193.172 302.33 193.484 302.46 193.81C302.831 194.581 303.096 195.398 303.25 196.24C303.369 197.086 303.369 197.944 303.25 198.79C303.256 199.127 303.219 199.462 303.14 199.79Z" fill="#263238"/>
<path d="M411.08 208.57H334.63C332.809 208.567 331.063 207.843 329.775 206.555C328.487 205.267 327.763 203.521 327.76 201.7V169.6L319.33 162.12H411.08C411.987 162.113 412.887 162.286 413.727 162.629C414.567 162.972 415.33 163.478 415.974 164.118C416.617 164.757 417.127 165.518 417.475 166.356C417.823 167.194 418.001 168.093 418 169V201.7C417.999 202.606 417.819 203.503 417.47 204.339C417.121 205.175 416.61 205.934 415.967 206.572C415.324 207.211 414.562 207.716 413.723 208.059C412.884 208.401 411.986 208.575 411.08 208.57Z" fill="#EBEBEB"/>
<path d="M405.84 213.77C403.128 214.027 400.403 214.114 397.68 214.03C394.961 214.114 392.239 214.027 389.53 213.77C392.239 213.512 394.961 213.426 397.68 213.51C400.403 213.425 403.128 213.512 405.84 213.77Z" fill="#E0E0E0"/>
<path d="M409.21 214.41C409.177 214.41 409.143 214.402 409.112 214.388C409.081 214.375 409.053 214.355 409.03 214.33L407.45 212.68C407.405 212.633 407.379 212.57 407.379 212.505C407.379 212.44 407.405 212.377 407.45 212.33C407.473 212.306 407.5 212.287 407.53 212.274C407.56 212.261 407.593 212.254 407.625 212.254C407.658 212.254 407.691 212.261 407.721 212.274C407.751 212.287 407.778 212.306 407.8 212.33L409.2 213.79L412.27 210.67C412.293 210.646 412.32 210.627 412.35 210.614C412.38 210.601 412.413 210.594 412.445 210.594C412.478 210.594 412.511 210.601 412.541 210.614C412.571 210.627 412.598 210.646 412.62 210.67C412.666 210.717 412.692 210.78 412.692 210.845C412.692 210.91 412.666 210.973 412.62 211.02L409.37 214.33C409.327 214.373 409.271 214.401 409.21 214.41Z" fill="#6E65CB"/>
<path d="M411.46 214.36H411.17C411.104 214.36 411.041 214.333 410.994 214.286C410.947 214.24 410.92 214.176 410.92 214.11C410.927 214.044 410.957 213.983 411.005 213.937C411.052 213.892 411.115 213.864 411.18 213.86H411.36L414.53 210.63C414.554 210.606 414.582 210.586 414.613 210.573C414.644 210.56 414.677 210.553 414.71 210.553C414.744 210.553 414.777 210.56 414.808 210.573C414.839 210.586 414.867 210.606 414.89 210.63C414.936 210.676 414.962 210.739 414.962 210.805C414.962 210.87 414.936 210.933 414.89 210.98L411.64 214.28C411.618 214.306 411.591 214.326 411.559 214.34C411.528 214.354 411.494 214.361 411.46 214.36Z" fill="#6E65CB"/>
<path d="M405.84 339.44C403.128 339.697 400.403 339.784 397.68 339.7C394.961 339.784 392.239 339.697 389.53 339.44C392.239 339.182 394.961 339.095 397.68 339.18C400.403 339.095 403.128 339.182 405.84 339.44Z" fill="#E0E0E0"/>
<path d="M409.21 340.08C409.172 340.084 409.132 340.078 409.096 340.065C409.059 340.051 409.027 340.028 409 340L407.42 338.35C407.393 338.327 407.37 338.299 407.354 338.267C407.337 338.235 407.328 338.2 407.327 338.165C407.325 338.129 407.332 338.093 407.345 338.06C407.359 338.027 407.379 337.997 407.405 337.973C407.431 337.948 407.462 337.93 407.496 337.918C407.53 337.906 407.566 337.902 407.601 337.906C407.637 337.909 407.671 337.92 407.702 337.938C407.733 337.956 407.76 337.981 407.78 338.01L409.18 339.47L412.25 336.35C412.273 336.326 412.3 336.307 412.33 336.294C412.36 336.281 412.393 336.274 412.425 336.274C412.458 336.274 412.491 336.281 412.521 336.294C412.551 336.307 412.578 336.326 412.6 336.35C412.646 336.396 412.672 336.459 412.672 336.525C412.672 336.59 412.646 336.653 412.6 336.7L409.39 340C409.342 340.047 409.278 340.075 409.21 340.08Z" fill="#6E65CB"/>
<path d="M411.46 340H411.17C411.103 339.997 411.04 339.969 410.993 339.92C410.946 339.872 410.92 339.807 410.92 339.74C410.92 339.707 410.927 339.674 410.94 339.643C410.954 339.613 410.973 339.585 410.998 339.563C411.022 339.54 411.051 339.523 411.082 339.512C411.114 339.501 411.147 339.497 411.18 339.5H411.36L414.53 336.27C414.554 336.246 414.582 336.226 414.613 336.213C414.644 336.2 414.677 336.193 414.71 336.193C414.744 336.193 414.777 336.2 414.808 336.213C414.839 336.226 414.867 336.246 414.89 336.27C414.936 336.317 414.962 336.379 414.962 336.445C414.962 336.51 414.936 336.573 414.89 336.62L411.64 339.92C411.618 339.946 411.591 339.966 411.559 339.98C411.528 339.994 411.494 340.001 411.46 340Z" fill="#6E65CB"/>
<path d="M410.1 171.31C410.1 171.45 393.41 171.57 372.82 171.57C352.23 171.57 335.55 171.45 335.55 171.31C335.55 171.17 352.23 171.05 372.82 171.05C393.41 171.05 410.1 171.16 410.1 171.31Z" fill="white"/>
<path d="M410.1 176.78C410.1 176.93 393.41 177.04 372.82 177.04C352.23 177.04 335.55 176.93 335.55 176.78C335.55 176.63 352.23 176.52 372.82 176.52C393.41 176.52 410.1 176.64 410.1 176.78Z" fill="white"/>
<path d="M410.1 182.26C410.1 182.4 393.41 182.52 372.82 182.52C352.23 182.52 335.55 182.4 335.55 182.26C335.55 182.12 352.23 182 372.82 182C393.41 182 410.1 182.12 410.1 182.26Z" fill="white"/>
<path d="M291.94 342.1C304.328 342.1 314.37 332.08 314.37 319.72C314.37 307.36 304.328 297.34 291.94 297.34C279.552 297.34 269.51 307.36 269.51 319.72C269.51 332.08 279.552 342.1 291.94 342.1Z" fill="#E0E0E0"/>
<path d="M281.46 325.32L287.34 324.82L301.68 327.24L303.37 338L303.13 339.25C299.901 341.076 296.271 342.075 292.562 342.161C288.853 342.246 285.181 341.415 281.87 339.74L281.46 325.29" fill="#455A64"/>
<path d="M298.61 327.06C300.032 326.854 301.483 327.052 302.798 327.63C304.114 328.208 305.24 329.143 306.05 330.33C307.024 331.689 307.915 333.105 308.72 334.57C306.38 337.11 304.48 339.04 301.24 340.16L298.61 327.06Z" fill="#455A64"/>
<path d="M281.46 325.32C281.46 325.32 277.58 325.79 276.08 329.1C274.58 332.41 274.23 333.45 274.23 333.45C276.23 335.86 278.79 338.72 281.92 339.79C281.92 339.79 282.63 331.46 282.72 329.1C282.83 326.52 282.93 325.24 281.46 325.32Z" fill="#455A64"/>
<path d="M285 304.12C285.976 302.866 287.222 301.848 288.645 301.142C290.068 300.436 291.632 300.059 293.22 300.04C294.586 300.032 295.941 300.272 297.22 300.75C298.565 301.076 299.753 301.861 300.58 302.97C301.598 304.281 302.266 305.83 302.52 307.47C302.755 309.152 302.835 310.853 302.76 312.55C302.68 314.253 302.13 315.9 301.17 317.31L296.86 318.06C294.484 318.244 292.094 318.117 289.75 317.68C287.382 317.225 285.29 315.852 283.93 313.86C282.2 311 282.92 306.67 285 304.12Z" fill="#263238"/>
<path d="M280.84 316.61C280.883 316.122 281.037 315.65 281.29 315.231C281.543 314.811 281.889 314.455 282.3 314.19C282.719 313.934 283.209 313.819 283.698 313.86C284.187 313.902 284.65 314.098 285.02 314.42L285.7 315.23C286.226 315.471 286.663 315.871 286.95 316.373C287.237 316.875 287.359 317.455 287.3 318.03C287.219 318.603 286.976 319.141 286.601 319.582C286.226 320.023 285.733 320.348 285.18 320.52C284.623 320.675 284.036 320.685 283.474 320.549C282.912 320.412 282.394 320.134 281.97 319.74C281.555 319.34 281.236 318.85 281.04 318.307C280.844 317.764 280.776 317.183 280.84 316.61Z" fill="#263238"/>
<path d="M281.69 319.51C281.53 319.252 281.45 318.953 281.46 318.65C281.605 317.925 281.951 317.256 282.46 316.72C282.94 316.15 283.528 315.681 284.19 315.34C284.69 315.07 285.04 314.97 285.03 314.93C284.712 314.959 284.403 315.051 284.12 315.2C283.419 315.519 282.798 315.991 282.3 316.58C282.023 316.902 281.788 317.258 281.6 317.64C281.436 317.949 281.34 318.29 281.32 318.64C281.317 318.88 281.383 319.116 281.51 319.32C281.6 319.47 281.69 319.52 281.69 319.51Z" fill="#455A64"/>
<path d="M296.84 326.66V322.66C296.84 322.66 300.35 322.27 301.33 317.78C301.79 314.803 301.971 311.79 301.87 308.78C301.87 306.05 299.52 302.33 296.14 302.32L294.64 302.15L288.89 304.43C288.49 304.45 288.112 304.619 287.83 304.904C287.549 305.189 287.385 305.57 287.37 305.97L287.2 325.17L289.83 328.86C290.312 329.512 290.985 329.996 291.756 330.246C292.527 330.495 293.357 330.497 294.129 330.251C294.901 330.005 295.576 329.524 296.061 328.874C296.545 328.225 296.814 327.44 296.83 326.63L296.84 326.66Z" fill="#FFBE9D"/>
<path d="M294.53 316.37C294.561 316.138 294.679 315.927 294.86 315.78C295.025 315.642 295.229 315.561 295.444 315.548C295.658 315.536 295.871 315.592 296.05 315.71C296.234 315.853 296.377 316.042 296.465 316.258C296.552 316.474 296.582 316.709 296.55 316.94C296.45 317.077 296.321 317.192 296.173 317.277C296.024 317.361 295.86 317.413 295.69 317.43H295.53C295.263 317.424 295.007 317.321 294.81 317.14C294.708 317.041 294.629 316.921 294.581 316.787C294.532 316.654 294.515 316.511 294.53 316.37Z" fill="#EB996E"/>
<path d="M299.76 312C299.742 312.142 299.672 312.272 299.564 312.367C299.457 312.461 299.319 312.513 299.175 312.513C299.032 312.513 298.894 312.461 298.786 312.367C298.679 312.272 298.609 312.142 298.59 312C298.598 311.847 298.665 311.703 298.777 311.599C298.889 311.494 299.037 311.437 299.19 311.44C299.265 311.439 299.339 311.452 299.408 311.48C299.477 311.507 299.54 311.548 299.593 311.6C299.646 311.653 299.688 311.715 299.717 311.783C299.746 311.852 299.76 311.926 299.76 312Z" fill="#263238"/>
<path d="M300.72 310.51C300.64 310.58 300.21 310.23 299.59 310.2C298.97 310.17 298.48 310.45 298.42 310.37C298.36 310.29 298.47 310.2 298.68 310.07C298.96 309.892 299.29 309.812 299.62 309.84C299.946 309.853 300.259 309.972 300.51 310.18C300.69 310.34 300.75 310.48 300.72 310.51Z" fill="#263238"/>
<path d="M296.77 315.25C297.098 315.172 297.433 315.128 297.77 315.12C297.93 315.12 298.09 315.12 298.12 314.98C298.142 314.816 298.114 314.648 298.04 314.5C297.91 314.11 297.77 313.7 297.63 313.26C297.25 312.205 296.953 311.121 296.74 310.02C297.209 311.04 297.593 312.097 297.89 313.18C298.03 313.62 298.15 314.03 298.28 314.43C298.365 314.629 298.382 314.85 298.33 315.06C298.303 315.115 298.264 315.164 298.215 315.202C298.167 315.24 298.11 315.267 298.05 315.28C297.961 315.294 297.87 315.294 297.78 315.28C297.444 315.316 297.104 315.306 296.77 315.25Z" fill="#263238"/>
<path d="M296.8 322.68C294.659 322.596 292.582 321.921 290.8 320.73C290.8 320.73 292.25 323.96 296.8 323.79V322.68Z" fill="#EB996E"/>
<path d="M294.9 315.58C295.01 315.58 294.97 316.26 295.53 316.78C296.09 317.3 296.81 317.26 296.81 317.35C296.81 317.44 296.64 317.47 296.34 317.47C295.938 317.453 295.555 317.293 295.26 317.02C294.975 316.763 294.802 316.404 294.78 316.02C294.77 315.74 294.86 315.58 294.9 315.58Z" fill="#263238"/>
<path d="M300.59 308.15C300.48 308.3 300 308.15 299.44 308.15C298.88 308.15 298.44 308.29 298.29 308.15C298.14 308.01 298.29 307.93 298.51 307.79C298.784 307.612 299.104 307.518 299.43 307.52C299.759 307.506 300.083 307.594 300.36 307.77C300.57 307.93 300.64 308.08 300.59 308.15Z" fill="#263238"/>
<path d="M292.88 311.92C292.878 312.072 292.935 312.219 293.04 312.329C293.144 312.44 293.288 312.505 293.44 312.51C293.514 312.518 293.589 312.511 293.66 312.49C293.731 312.468 293.797 312.433 293.854 312.385C293.911 312.338 293.958 312.279 293.992 312.213C294.026 312.146 294.046 312.074 294.05 312C294.053 311.847 293.996 311.698 293.892 311.586C293.787 311.475 293.643 311.408 293.49 311.4C293.416 311.393 293.341 311.401 293.27 311.424C293.199 311.446 293.133 311.483 293.076 311.531C293.019 311.58 292.972 311.639 292.939 311.706C292.905 311.773 292.885 311.845 292.88 311.92Z" fill="#263238"/>
<path d="M292.12 310.28C292.19 310.36 292.64 310.04 293.27 310.06C293.9 310.08 294.35 310.39 294.42 310.31C294.49 310.23 294.42 310.14 294.18 309.99C293.911 309.799 293.59 309.694 293.26 309.69C292.935 309.688 292.618 309.785 292.35 309.97C292.15 310.11 292.08 310.25 292.12 310.28Z" fill="#263238"/>
<path d="M291.76 308.94C291.88 309.08 292.37 308.94 292.95 308.94C293.53 308.94 294.02 309.05 294.14 308.94C294.26 308.83 294.14 308.73 293.9 308.59C293.609 308.419 293.278 308.33 292.94 308.33C292.603 308.33 292.272 308.419 291.98 308.59C291.77 308.72 291.7 308.87 291.76 308.94Z" fill="#263238"/>
<path d="M288.11 313.25C288.11 312.91 287.79 312.1 287.45 312.03C286.57 311.84 284.96 311.82 284.82 314.08C284.63 317.17 287.82 316.73 287.82 316.64C287.82 316.55 288.05 314.42 288.11 313.25Z" fill="#FFBE9D"/>
<path d="M287 315.46C287 315.46 286.95 315.46 286.85 315.53C286.721 315.579 286.579 315.579 286.45 315.53C286.257 315.392 286.104 315.206 286.008 314.99C285.911 314.774 285.874 314.535 285.9 314.3C285.911 314.035 285.979 313.776 286.1 313.54C286.136 313.446 286.194 313.361 286.268 313.293C286.343 313.226 286.433 313.176 286.53 313.15C286.592 313.138 286.657 313.147 286.713 313.176C286.769 313.205 286.814 313.252 286.84 313.31C286.848 313.363 286.848 313.417 286.84 313.47C286.84 313.47 286.91 313.42 286.89 313.29C286.875 313.213 286.837 313.143 286.78 313.09C286.74 313.056 286.694 313.031 286.644 313.016C286.594 313 286.542 312.995 286.49 313C286.362 313.014 286.239 313.063 286.136 313.14C286.032 313.217 285.951 313.321 285.9 313.44C285.751 313.699 285.668 313.991 285.66 314.29C285.627 314.563 285.676 314.841 285.8 315.086C285.925 315.332 286.12 315.535 286.36 315.67C286.438 315.708 286.523 315.728 286.61 315.728C286.697 315.728 286.782 315.708 286.86 315.67C287 315.53 287 315.46 287 315.46Z" fill="#EB996E"/>
<path d="M287.33 312L288.11 312.82C291.51 309.57 298.16 301.44 297.79 301.93C296.24 301.35 294.569 301.167 292.93 301.4C290.4 301.83 285.61 303.09 285.68 306.07C285.83 308.137 286.391 310.153 287.33 312Z" fill="#263238"/>
<path d="M282.83 311.35C282.83 311.35 282.83 311.29 282.83 311.17C282.891 311.006 282.961 310.846 283.04 310.69C283.363 310.115 283.807 309.617 284.34 309.23C285.15 308.67 286.049 308.254 287 308C288 307.66 289.2 307.4 290.35 306.91C291.433 306.461 292.46 305.887 293.41 305.2C294.186 304.64 294.909 304.011 295.57 303.32C296.13 302.72 296.57 302.2 296.82 301.84C296.94 301.66 297.05 301.52 297.13 301.41C297.21 301.3 297.24 301.26 297.25 301.27L297.16 301.43L296.87 301.87C296.502 302.407 296.094 302.915 295.65 303.39C294.993 304.101 294.27 304.747 293.49 305.32C292.53 306.001 291.493 306.565 290.4 307C289.24 307.49 288.06 307.75 287.03 308.08C286.109 308.334 285.238 308.74 284.45 309.28C283.919 309.649 283.473 310.126 283.14 310.68C283.023 310.897 282.92 311.121 282.83 311.35Z" fill="#455A64"/>
<path d="M283.73 311.84C283.723 311.607 283.764 311.376 283.85 311.16C284.079 310.569 284.484 310.063 285.01 309.71C285.798 309.207 286.679 308.867 287.6 308.71C288.704 308.495 289.78 308.159 290.81 307.71C291.833 307.245 292.794 306.654 293.67 305.95C294.875 304.986 295.909 303.826 296.73 302.52C296.84 302.34 296.93 302.2 296.99 302.08C297.023 302.03 297.06 301.983 297.1 301.94C297.079 301.996 297.052 302.049 297.02 302.1L296.78 302.55C296.473 303.094 296.119 303.609 295.72 304.09C295.129 304.828 294.459 305.499 293.72 306.09C292.838 306.808 291.867 307.41 290.83 307.88C289.787 308.333 288.697 308.668 287.58 308.88C286.672 309.04 285.805 309.38 285.03 309.88C284.506 310.211 284.097 310.697 283.86 311.27C283.799 311.455 283.756 311.646 283.73 311.84Z" fill="#455A64"/>
<path d="M281.92 339.77C281.773 337.803 281.773 335.827 281.92 333.86C282.053 335.828 282.053 337.802 281.92 339.77Z" fill="#263238"/>
<path d="M303.14 339.36C303.111 339.01 303.111 338.659 303.14 338.31C303.2 337.472 303.17 336.631 303.05 335.8C302.893 334.977 302.652 334.173 302.33 333.4C302.181 333.078 302.06 332.743 301.97 332.4C302.166 332.692 302.33 333.004 302.46 333.33C302.832 334.101 303.098 334.918 303.25 335.76C303.369 336.606 303.369 337.464 303.25 338.31C303.259 338.663 303.222 339.016 303.14 339.36Z" fill="#263238"/>
<path d="M411.08 332.88H334.63C332.807 332.877 331.06 332.151 329.772 330.861C328.484 329.571 327.76 327.823 327.76 326V309.16L319.33 301.68H411.08C412.901 301.682 414.647 302.407 415.935 303.695C417.223 304.983 417.947 306.728 417.95 308.55V326C417.95 327.823 417.227 329.571 415.939 330.861C414.65 332.151 412.903 332.877 411.08 332.88Z" fill="#EBEBEB"/>
<path d="M410.1 310.87C410.1 311.02 393.41 311.13 372.82 311.13C352.23 311.13 335.55 311.02 335.55 310.87C335.55 310.72 352.23 310.61 372.82 310.61C393.41 310.61 410.1 310.73 410.1 310.87Z" fill="white"/>
<path d="M410.1 316.35C410.1 316.49 393.41 316.61 372.82 316.61C352.23 316.61 335.55 316.49 335.55 316.35C335.55 316.21 352.23 316.09 372.82 316.09C393.41 316.09 410.1 316.21 410.1 316.35Z" fill="white"/>
<path d="M410.1 321.83C410.1 321.97 393.41 322.09 372.82 322.09C352.23 322.09 335.55 321.97 335.55 321.83C335.55 321.69 352.23 321.57 372.82 321.57C393.41 321.57 410.1 321.68 410.1 321.83Z" fill="white"/>
<path d="M410.1 187.74C410.1 187.88 393.41 188 372.82 188C352.23 188 335.55 187.88 335.55 187.74C335.55 187.6 352.23 187.48 372.82 187.48C393.41 187.48 410.1 187.59 410.1 187.74Z" fill="white"/>
<path d="M410.1 193.21C410.1 193.36 393.41 193.47 372.82 193.47C352.23 193.47 335.55 193.36 335.55 193.21C335.55 193.06 352.23 192.95 372.82 192.95C393.41 192.95 410.1 193.07 410.1 193.21Z" fill="white"/>
<path d="M410.1 199.79C410.1 199.94 393.41 200.05 372.82 200.05C352.23 200.05 335.55 199.94 335.55 199.79C335.55 199.64 352.23 199.53 372.82 199.53C393.41 199.53 410.1 199.65 410.1 199.79Z" fill="white"/>
<path d="M336 104.63C336.053 103.853 336.333 103.108 336.803 102.488C337.274 101.867 337.915 101.397 338.649 101.136C339.383 100.875 340.177 100.833 340.934 101.017C341.691 101.201 342.378 101.601 342.91 102.17L341.84 103.17C341.619 102.902 341.341 102.687 341.026 102.54C340.711 102.393 340.367 102.318 340.02 102.32C339.405 102.32 338.815 102.564 338.38 102.999C337.944 103.434 337.7 104.025 337.7 104.64C337.7 105.255 337.944 105.845 338.38 106.28C338.815 106.715 339.405 106.96 340.02 106.96C340.368 106.962 340.713 106.886 341.028 106.738C341.343 106.589 341.621 106.371 341.84 106.1L342.91 107.1C342.378 107.668 341.692 108.069 340.936 108.253C340.18 108.437 339.387 108.396 338.653 108.136C337.92 107.876 337.278 107.408 336.807 106.789C336.336 106.169 336.055 105.426 336 104.65V104.63Z" fill="#263238"/>
<path d="M349.56 105.06V108.25H348V105.31C348 104.41 347.58 104 346.87 104C346.16 104 345.54 104.48 345.54 105.5V108.25H343.92V100.58H345.54V103.27C345.775 103.045 346.053 102.869 346.357 102.754C346.661 102.639 346.985 102.587 347.31 102.6C347.628 102.587 347.944 102.644 348.237 102.766C348.53 102.888 348.793 103.073 349.007 103.307C349.222 103.541 349.382 103.82 349.478 104.122C349.573 104.425 349.601 104.745 349.56 105.06Z" fill="#263238"/>
<path d="M355.94 105.08V108.25H354.43V107.56C354.243 107.83 353.986 108.044 353.686 108.179C353.387 108.315 353.057 108.367 352.73 108.33C351.43 108.33 350.66 107.61 350.66 106.65C350.66 105.69 351.35 104.98 353.05 104.98H354.33C354.33 104.29 353.91 103.89 353.05 103.89C352.473 103.884 351.909 104.063 351.44 104.4L350.86 103.28C351.574 102.818 352.41 102.581 353.26 102.6C355 102.6 355.94 103.39 355.94 105.08ZM354.33 106.49V105.92H353.22C352.47 105.92 352.22 106.2 352.22 106.58C352.22 106.96 352.56 107.25 353.13 107.25C353.385 107.269 353.64 107.205 353.856 107.068C354.072 106.931 354.238 106.729 354.33 106.49Z" fill="#263238"/>
<path d="M361 108C360.606 108.248 360.145 108.37 359.68 108.35C359.405 108.388 359.126 108.363 358.862 108.277C358.599 108.191 358.358 108.046 358.159 107.853C357.959 107.661 357.807 107.425 357.711 107.165C357.616 106.904 357.582 106.626 357.61 106.35V104.06H356.75V102.82H357.61V101.46H359.22V102.82H360.61V104.06H359.22V106.33C359.208 106.425 359.217 106.522 359.247 106.613C359.277 106.705 359.327 106.788 359.392 106.858C359.458 106.928 359.539 106.982 359.629 107.017C359.718 107.052 359.814 107.067 359.91 107.06C360.145 107.068 360.375 106.994 360.56 106.85L361 108Z" fill="#263238"/>
<path d="M389.53 115.79C389.53 115.93 372.53 116.05 351.46 116.05C330.39 116.05 313.4 115.93 313.4 115.79C313.4 115.65 330.4 115.52 351.46 115.52C372.52 115.52 389.53 115.64 389.53 115.79Z" fill="#263238"/>
<path d="M423.26 104.63C424.238 104.63 425.03 103.837 425.03 102.86C425.03 101.882 424.238 101.09 423.26 101.09C422.283 101.09 421.49 101.882 421.49 102.86C421.49 103.837 422.283 104.63 423.26 104.63Z" fill="#263238"/>
<path d="M425 108C425.002 108.353 424.899 108.698 424.705 108.993C424.51 109.287 424.232 109.517 423.906 109.653C423.581 109.789 423.222 109.825 422.876 109.756C422.529 109.688 422.211 109.518 421.962 109.269C421.712 109.019 421.543 108.701 421.474 108.355C421.406 108.009 421.442 107.65 421.578 107.324C421.714 106.999 421.943 106.721 422.238 106.526C422.532 106.331 422.878 106.228 423.23 106.23C423.699 106.233 424.148 106.42 424.479 106.751C424.81 107.083 424.998 107.531 425 108Z" fill="#263238"/>
<path d="M425 113.19C425.002 113.543 424.899 113.888 424.705 114.183C424.51 114.477 424.232 114.707 423.906 114.843C423.581 114.978 423.222 115.015 422.876 114.946C422.529 114.878 422.211 114.708 421.962 114.459C421.712 114.209 421.543 113.891 421.474 113.545C421.406 113.199 421.442 112.84 421.578 112.514C421.714 112.188 421.943 111.911 422.238 111.716C422.532 111.521 422.878 111.418 423.23 111.42C423.7 111.42 424.15 111.606 424.482 111.938C424.814 112.27 425 112.721 425 113.19Z" fill="#263238"/>
<path d="M279.32 108.86C279.212 108.862 279.106 108.827 279.02 108.76L274.33 105.32C274.266 105.272 274.214 105.21 274.177 105.139C274.141 105.068 274.121 104.99 274.12 104.91C274.12 104.831 274.14 104.754 274.176 104.684C274.213 104.614 274.266 104.555 274.33 104.51L279.02 101.13C279.074 101.091 279.135 101.064 279.199 101.049C279.263 101.035 279.33 101.033 279.395 101.044C279.46 101.055 279.522 101.079 279.578 101.114C279.634 101.15 279.682 101.196 279.72 101.25C279.796 101.356 279.826 101.488 279.806 101.617C279.785 101.746 279.715 101.862 279.61 101.94L275.47 104.94L279.61 107.94C279.716 108.019 279.786 108.137 279.807 108.267C279.827 108.398 279.796 108.532 279.72 108.64C279.676 108.706 279.617 108.761 279.547 108.799C279.478 108.837 279.4 108.858 279.32 108.86Z" fill="#263238"/>
<path d="M401.71 277C414.098 277 424.14 266.98 424.14 254.62C424.14 242.26 414.098 232.24 401.71 232.24C389.323 232.24 379.28 242.26 379.28 254.62C379.28 266.98 389.323 277 401.71 277Z" fill="#E0E0E0"/>
<path d="M407.85 267.85H396.05C395.647 267.85 395.261 267.69 394.975 267.405C394.69 267.12 394.53 266.733 394.53 266.33C394.53 265.926 394.69 265.538 394.975 265.251C395.26 264.965 395.646 264.802 396.05 264.8H407.85C408.254 264.802 408.641 264.965 408.926 265.251C409.21 265.538 409.37 265.926 409.37 266.33C409.37 266.733 409.21 267.12 408.925 267.405C408.64 267.69 408.253 267.85 407.85 267.85Z" fill="#263238"/>
<path d="M402.62 240.07H401.58V245.31H402.62V240.07Z" fill="#263238"/>
<path d="M386.81 261.02C388.489 261.02 389.85 259.659 389.85 257.98C389.85 256.301 388.489 254.94 386.81 254.94C385.131 254.94 383.77 256.301 383.77 257.98C383.77 259.659 385.131 261.02 386.81 261.02Z" fill="#6E65CB"/>
<path d="M417.55 260.82C419.229 260.82 420.59 259.459 420.59 257.78C420.59 256.101 419.229 254.74 417.55 254.74C415.871 254.74 414.51 256.101 414.51 257.78C414.51 259.459 415.871 260.82 417.55 260.82Z" fill="#6E65CB"/>
<path d="M402.55 244.21C402.55 244.21 414.93 244.06 416.89 254.79C418.85 265.52 408.38 265.71 405.37 265.91C404.01 266 401.09 266.01 398.51 265.97C392.8 265.87 388.77 264.77 387.4 259.47C387.236 258.848 387.132 258.212 387.09 257.57C386.73 251.77 390.65 243.93 402.55 244.21Z" fill="#6E65CB"/>
<path d="M393.57 260.54L411.57 260.82C412.475 260.833 413.349 260.487 414 259.857C414.65 259.227 415.024 258.365 415.04 257.46C415.051 256.554 414.702 255.682 414.07 255.033C413.439 254.385 412.575 254.013 411.67 254L393.67 253.72C393.221 253.712 392.776 253.793 392.358 253.957C391.941 254.122 391.56 254.367 391.238 254.679C390.915 254.992 390.658 255.364 390.48 255.776C390.302 256.188 390.207 256.631 390.2 257.08C390.193 257.528 390.275 257.974 390.441 258.391C390.607 258.808 390.854 259.188 391.167 259.509C391.48 259.831 391.853 260.087 392.266 260.264C392.678 260.441 393.121 260.535 393.57 260.54Z" fill="#263238"/>
<path d="M407.83 257.09C407.856 257.231 407.911 257.366 407.989 257.487C408.068 257.607 408.17 257.711 408.289 257.792C408.408 257.873 408.542 257.929 408.683 257.958C408.824 257.987 408.969 257.988 409.11 257.96C409.262 257.945 409.41 257.898 409.543 257.822C409.676 257.747 409.792 257.644 409.883 257.521C409.974 257.398 410.039 257.258 410.072 257.109C410.106 256.96 410.108 256.805 410.079 256.655C410.05 256.505 409.989 256.362 409.902 256.237C409.814 256.111 409.702 256.005 409.571 255.926C409.44 255.846 409.294 255.795 409.143 255.775C408.991 255.755 408.837 255.767 408.69 255.81C408.55 255.838 408.416 255.893 408.296 255.972C408.177 256.051 408.075 256.153 407.995 256.272C407.915 256.391 407.859 256.524 407.831 256.665C407.803 256.805 407.802 256.95 407.83 257.09Z" fill="white"/>
<path d="M395.26 256.89C395.276 257.042 395.323 257.189 395.398 257.322C395.474 257.455 395.576 257.571 395.699 257.662C395.822 257.754 395.963 257.818 396.112 257.852C396.261 257.886 396.416 257.888 396.566 257.859C396.716 257.829 396.858 257.769 396.984 257.682C397.109 257.594 397.215 257.481 397.295 257.351C397.374 257.22 397.426 257.074 397.446 256.922C397.465 256.771 397.453 256.617 397.41 256.47C397.333 256.207 397.161 255.982 396.926 255.839C396.692 255.697 396.413 255.647 396.144 255.7C395.875 255.752 395.635 255.903 395.472 256.123C395.308 256.344 395.233 256.617 395.26 256.89Z" fill="white"/>
<path d="M403.81 240C403.812 240.338 403.713 240.67 403.527 240.953C403.34 241.235 403.074 241.456 402.761 241.587C402.449 241.718 402.105 241.753 401.773 241.688C401.44 241.623 401.135 241.461 400.895 241.222C400.654 240.984 400.491 240.679 400.424 240.347C400.357 240.015 400.39 239.671 400.519 239.358C400.648 239.045 400.868 238.777 401.149 238.589C401.43 238.4 401.761 238.3 402.1 238.3C402.552 238.3 402.985 238.479 403.306 238.797C403.626 239.116 403.807 239.548 403.81 240Z" fill="#6E65CB"/>
<path d="M404.68 256.59C404.68 256.59 404.75 256.67 404.79 256.85C404.822 257.105 404.798 257.364 404.72 257.61C404.611 257.99 404.404 258.334 404.12 258.61C403.774 258.956 403.318 259.172 402.83 259.22C402.343 259.26 401.856 259.133 401.45 258.86C401.129 258.642 400.865 258.351 400.68 258.01C400.562 257.78 400.494 257.528 400.48 257.27C400.48 257.09 400.48 256.99 400.54 256.99C400.6 256.99 400.64 257.37 400.97 257.84C401.163 258.1 401.404 258.321 401.68 258.49C402.015 258.689 402.403 258.779 402.79 258.75C403.163 258.702 403.512 258.542 403.79 258.29C404.042 258.081 404.244 257.818 404.38 257.52C404.64 257 404.6 256.59 404.68 256.59Z" fill="white"/>
<path d="M416.87 254.44C416.907 254.524 416.937 254.611 416.96 254.7C416.999 254.805 417.032 254.912 417.06 255.02C417.06 255.14 417.13 255.28 417.16 255.45C417.236 255.823 417.29 256.2 417.32 256.58C417.355 257.046 417.355 257.514 417.32 257.98C417.278 258.445 417.201 258.906 417.09 259.36C416.996 259.728 416.876 260.089 416.73 260.44C416.681 260.579 416.624 260.716 416.56 260.85C416.516 260.95 416.466 261.047 416.41 261.14L416.27 261.39C416.292 261.298 416.329 261.21 416.38 261.13L416.51 260.82C416.56 260.7 416.62 260.57 416.67 260.42C416.805 260.068 416.915 259.707 417 259.34C417.107 258.889 417.184 258.431 417.23 257.97C417.26 257.507 417.26 257.043 417.23 256.58C417.205 256.204 417.158 255.83 417.09 255.46C417.069 255.305 417.039 255.151 417 255C417 254.87 416.95 254.77 416.93 254.68C416.899 254.603 416.879 254.522 416.87 254.44Z" fill="#263238"/>
<path d="M387.54 254.5C387.497 254.586 387.464 254.677 387.44 254.77C387.44 254.85 387.38 254.96 387.34 255.08C387.3 255.2 387.27 255.35 387.24 255.51C387.163 255.883 387.113 256.26 387.09 256.64C387.055 257.106 387.055 257.574 387.09 258.04C387.13 258.505 387.207 258.967 387.32 259.42C387.413 259.792 387.533 260.156 387.68 260.51C387.73 260.66 387.8 260.79 387.85 260.91C387.9 261.03 387.96 261.13 388 261.21L388.14 261.45C388.114 261.359 388.077 261.272 388.03 261.19C388.03 261.11 387.95 261.01 387.9 260.89C387.85 260.77 387.79 260.64 387.74 260.49C387.606 260.134 387.495 259.77 387.41 259.4C387.303 258.949 387.226 258.491 387.18 258.03C387.151 257.57 387.151 257.11 387.18 256.65C387.205 256.271 387.252 255.894 387.32 255.52C387.341 255.378 387.371 255.238 387.41 255.1C387.41 254.97 387.46 254.86 387.48 254.78C387.5 254.7 387.54 254.5 387.54 254.5Z" fill="#263238"/>
<path d="M390.21 273.84C390.21 273.84 393.89 270.25 401.58 270.25C409.27 270.25 413.21 273.84 413.21 273.84C409.74 275.934 405.764 277.041 401.71 277.041C397.657 277.041 393.681 275.934 390.21 273.84Z" fill="#6E65CB"/>
<path d="M279 277.44H355.44C356.343 277.441 357.237 277.264 358.071 276.919C358.905 276.575 359.663 276.069 360.301 275.43C360.939 274.792 361.445 274.034 361.79 273.2C362.135 272.366 362.312 271.472 362.31 270.57V248.39L370.74 240.91H279C278.098 240.91 277.205 241.087 276.371 241.433C275.538 241.778 274.78 242.284 274.143 242.922C273.505 243.56 272.999 244.317 272.653 245.151C272.308 245.984 272.13 246.877 272.13 247.78V270.57C272.129 271.472 272.306 272.366 272.651 273.2C272.995 274.034 273.501 274.792 274.14 275.43C274.778 276.069 275.536 276.575 276.37 276.919C277.204 277.264 278.098 277.441 279 277.44Z" fill="#EBEBEB"/>
<path d="M352 251.75C352 251.9 336.26 252.01 316.84 252.01C297.42 252.01 281.68 251.9 281.68 251.75C281.68 251.6 297.42 251.49 316.84 251.49C336.26 251.49 352 251.61 352 251.75Z" fill="white"/>
<path d="M352 257.69C352 257.84 336.26 257.95 316.84 257.95C297.42 257.95 281.68 257.84 281.68 257.69C281.68 257.54 297.42 257.43 316.84 257.43C336.26 257.43 352 257.55 352 257.69Z" fill="white"/>
<path d="M352 263.63C352 263.77 336.26 263.89 316.84 263.89C297.42 263.89 281.68 263.77 281.68 263.63C281.68 263.49 297.42 263.37 316.84 263.37C336.26 263.37 352 263.49 352 263.63Z" fill="white"/>
<path d="M352 269.57C352 269.71 336.26 269.83 316.84 269.83C297.42 269.83 281.68 269.71 281.68 269.57C281.68 269.43 297.42 269.31 316.84 269.31C336.26 269.31 352 269.42 352 269.57Z" fill="white"/>
<path d="M401.71 401.28C414.098 401.28 424.14 391.26 424.14 378.9C424.14 366.54 414.098 356.52 401.71 356.52C389.323 356.52 379.28 366.54 379.28 378.9C379.28 391.26 389.323 401.28 401.71 401.28Z" fill="#E0E0E0"/>
<path d="M407.85 392.13H396.05C395.85 392.13 395.651 392.09 395.466 392.013C395.281 391.936 395.113 391.824 394.972 391.681C394.831 391.539 394.719 391.37 394.643 391.185C394.567 390.999 394.529 390.801 394.53 390.6C394.53 390.197 394.69 389.81 394.975 389.525C395.261 389.24 395.647 389.08 396.05 389.08H407.85C408.253 389.08 408.64 389.24 408.925 389.525C409.21 389.81 409.37 390.197 409.37 390.6C409.372 390.801 409.333 390.999 409.257 391.185C409.182 391.37 409.07 391.539 408.929 391.681C408.787 391.824 408.619 391.936 408.434 392.013C408.249 392.09 408.051 392.13 407.85 392.13Z" fill="#263238"/>
<path d="M402.62 364.35H401.58V369.59H402.62V364.35Z" fill="#263238"/>
<path d="M386.81 385.3C388.489 385.3 389.85 383.939 389.85 382.26C389.85 380.581 388.489 379.22 386.81 379.22C385.131 379.22 383.77 380.581 383.77 382.26C383.77 383.939 385.131 385.3 386.81 385.3Z" fill="#6E65CB"/>
<path d="M417.55 385.09C419.229 385.09 420.59 383.729 420.59 382.05C420.59 380.371 419.229 379.01 417.55 379.01C415.871 379.01 414.51 380.371 414.51 382.05C414.51 383.729 415.871 385.09 417.55 385.09Z" fill="#6E65CB"/>
<path d="M402.55 368.49C402.55 368.49 414.93 368.34 416.89 379.06C418.85 389.78 408.38 389.99 405.37 390.19C404.01 390.28 401.09 390.29 398.51 390.25C392.8 390.15 388.77 389.04 387.4 383.75C387.236 383.128 387.132 382.492 387.09 381.85C386.73 376.05 390.65 368.2 402.55 368.49Z" fill="#6E65CB"/>
<path d="M393.57 384.82L411.57 385.1C412.475 385.113 413.349 384.767 414 384.137C414.65 383.507 415.024 382.645 415.04 381.74C415.051 380.834 414.702 379.962 414.07 379.313C413.439 378.664 412.575 378.293 411.67 378.28L393.67 377.99C392.765 377.976 391.891 378.322 391.24 378.952C390.59 379.582 390.216 380.444 390.2 381.35C390.193 381.799 390.275 382.245 390.441 382.662C390.607 383.08 390.853 383.46 391.166 383.783C391.479 384.105 391.853 384.362 392.265 384.54C392.677 384.718 393.121 384.813 393.57 384.82Z" fill="#263238"/>
<path d="M407.83 381.37C407.854 381.512 407.907 381.649 407.983 381.771C408.06 381.893 408.161 381.999 408.279 382.083C408.397 382.166 408.53 382.226 408.671 382.258C408.812 382.29 408.958 382.294 409.1 382.27C409.243 382.245 409.379 382.193 409.501 382.116C409.624 382.039 409.73 381.939 409.813 381.821C409.897 381.703 409.956 381.57 409.988 381.429C410.02 381.288 410.024 381.142 410 381C409.985 380.848 409.938 380.7 409.862 380.567C409.787 380.434 409.684 380.318 409.561 380.227C409.438 380.136 409.298 380.071 409.149 380.037C409 380.004 408.845 380.001 408.695 380.031C408.545 380.06 408.402 380.12 408.277 380.208C408.151 380.295 408.045 380.408 407.966 380.539C407.886 380.669 407.835 380.815 407.815 380.967C407.795 381.119 407.807 381.273 407.85 381.42L407.83 381.37Z" fill="white"/>
<path d="M395.26 381.17C395.302 381.384 395.406 381.58 395.559 381.734C395.712 381.889 395.907 381.994 396.121 382.038C396.334 382.081 396.555 382.06 396.756 381.978C396.958 381.896 397.13 381.755 397.252 381.575C397.373 381.395 397.439 381.182 397.44 380.965C397.441 380.747 397.377 380.534 397.257 380.353C397.137 380.171 396.966 380.03 396.765 379.945C396.565 379.861 396.344 379.839 396.13 379.88C395.988 379.908 395.853 379.963 395.733 380.043C395.612 380.122 395.509 380.225 395.428 380.345C395.347 380.465 395.291 380.599 395.262 380.741C395.233 380.882 395.232 381.028 395.26 381.17Z" fill="white"/>
<path d="M403.81 364.24C403.81 364.578 403.71 364.909 403.522 365.19C403.334 365.471 403.067 365.69 402.755 365.82C402.442 365.949 402.098 365.983 401.767 365.917C401.435 365.851 401.13 365.688 400.891 365.449C400.652 365.21 400.489 364.905 400.423 364.573C400.357 364.242 400.391 363.898 400.52 363.585C400.65 363.273 400.869 363.006 401.15 362.818C401.431 362.63 401.762 362.53 402.1 362.53C402.554 362.53 402.989 362.71 403.309 363.031C403.63 363.351 403.81 363.786 403.81 364.24Z" fill="#6E65CB"/>
<path d="M404.68 380.86C404.68 380.86 404.75 380.95 404.79 381.13C404.821 381.385 404.798 381.644 404.72 381.89C404.608 382.269 404.402 382.613 404.12 382.89C403.774 383.236 403.318 383.452 402.83 383.5C402.343 383.54 401.856 383.413 401.45 383.14C401.129 382.922 400.865 382.631 400.68 382.29C400.563 382.06 400.495 381.808 400.48 381.55C400.48 381.37 400.48 381.27 400.54 381.27C400.6 381.27 400.64 381.65 400.97 382.11C401.16 382.376 401.401 382.6 401.68 382.77C402.017 382.962 402.403 383.053 402.79 383.03C403.163 382.982 403.512 382.822 403.79 382.57C404.038 382.357 404.239 382.094 404.38 381.8C404.64 381.26 404.6 380.87 404.68 380.86Z" fill="white"/>
<path d="M416.87 378.71C416.87 378.71 416.87 378.81 416.96 378.98C417.001 379.084 417.034 379.191 417.06 379.3C417.06 379.42 417.13 379.56 417.16 379.72C417.235 380.093 417.288 380.471 417.32 380.85C417.355 381.316 417.355 381.784 417.32 382.25C417.28 382.715 417.203 383.177 417.09 383.63C416.997 384.002 416.877 384.366 416.73 384.72C416.681 384.856 416.624 384.99 416.56 385.12C416.518 385.224 416.468 385.324 416.41 385.42L416.27 385.66C416.296 385.569 416.333 385.482 416.38 385.4C416.38 385.32 416.46 385.22 416.51 385.1C416.56 384.98 416.62 384.85 416.67 384.7C416.806 384.345 416.916 383.981 417 383.61C417.108 383.162 417.184 382.708 417.23 382.25C417.26 381.787 417.26 381.323 417.23 380.86C417.206 380.484 417.159 380.11 417.09 379.74C417.069 379.595 417.039 379.451 417 379.31C417 379.18 416.95 379.08 416.93 378.99C416.896 378.9 416.875 378.806 416.87 378.71Z" fill="#263238"/>
<path d="M387.54 378.78C387.497 378.866 387.464 378.956 387.44 379.05C387.44 379.13 387.38 379.24 387.34 379.36C387.3 379.48 387.27 379.63 387.24 379.79C387.163 380.162 387.113 380.54 387.09 380.92C387.055 381.386 387.055 381.854 387.09 382.32C387.131 382.785 387.208 383.246 387.32 383.7C387.413 384.072 387.533 384.436 387.68 384.79C387.73 384.94 387.8 385.07 387.85 385.19C387.9 385.31 387.96 385.41 388 385.49L388.14 385.73C388.116 385.638 388.079 385.551 388.03 385.47C388.03 385.39 387.95 385.29 387.9 385.17C387.85 385.05 387.79 384.92 387.74 384.76C387.606 384.408 387.495 384.047 387.41 383.68C387.303 383.229 387.226 382.771 387.18 382.31C387.151 381.85 387.151 381.389 387.18 380.93C387.205 380.551 387.252 380.173 387.32 379.8C387.341 379.658 387.371 379.518 387.41 379.38C387.41 379.25 387.46 379.14 387.48 379.06C387.5 378.98 387.54 378.78 387.54 378.78Z" fill="#263238"/>
<path d="M390.21 398.12C390.21 398.12 393.89 394.53 401.58 394.53C409.27 394.53 413.21 398.12 413.21 398.12C409.74 400.214 405.764 401.32 401.71 401.32C397.657 401.32 393.681 400.214 390.21 398.12Z" fill="#6E65CB"/>
<path d="M279 401.72H355.44C356.343 401.721 357.237 401.544 358.071 401.2C358.905 400.855 359.663 400.349 360.301 399.711C360.939 399.072 361.445 398.315 361.79 397.481C362.135 396.646 362.312 395.752 362.31 394.85V372.67L370.74 365.19H279C278.098 365.19 277.205 365.368 276.371 365.713C275.538 366.058 274.78 366.564 274.143 367.202C273.505 367.84 272.999 368.597 272.653 369.431C272.308 370.264 272.13 371.158 272.13 372.06V394.85C272.129 395.752 272.306 396.646 272.651 397.481C272.995 398.315 273.501 399.072 274.14 399.711C274.778 400.349 275.536 400.855 276.37 401.2C277.204 401.544 278.098 401.721 279 401.72Z" fill="#EBEBEB"/>
<path d="M279 436.41H355.44C356.343 436.41 357.238 436.232 358.072 435.886C358.906 435.54 359.664 435.033 360.302 434.394C360.94 433.755 361.446 432.996 361.79 432.162C362.135 431.327 362.312 430.433 362.31 429.53V422.18L370.74 414.7H279C278.098 414.7 277.205 414.877 276.371 415.223C275.538 415.568 274.78 416.074 274.143 416.712C273.505 417.35 272.999 418.107 272.653 418.941C272.308 419.774 272.13 420.668 272.13 421.57V429.57C272.138 431.387 272.866 433.126 274.153 434.408C275.441 435.69 277.184 436.41 279 436.41Z" fill="#EBEBEB"/>
<path d="M352 376C352 376.15 336.26 376.26 316.84 376.26C297.42 376.26 281.68 376.15 281.68 376C281.68 375.85 297.42 375.74 316.84 375.74C336.26 375.74 352 375.89 352 376Z" fill="white"/>
<path d="M352 382C352 382.14 336.26 382.26 316.84 382.26C297.42 382.26 281.68 382.14 281.68 382C281.68 381.86 297.42 381.74 316.84 381.74C336.26 381.74 352 381.83 352 382Z" fill="white"/>
<path d="M352 387.91C352 388.05 336.26 388.17 316.84 388.17C297.42 388.17 281.68 388.05 281.68 387.91C281.68 387.77 297.42 387.65 316.84 387.65C336.26 387.65 352 387.76 352 387.91Z" fill="white"/>
<path d="M352 393.85C352 393.99 336.26 394.11 316.84 394.11C297.42 394.11 281.68 393.99 281.68 393.85C281.68 393.71 297.42 393.59 316.84 393.59C336.26 393.59 352 393.7 352 393.85Z" fill="white"/>
<path d="M352.24 425.87C352.24 426.01 336.66 426.13 317.45 426.13C298.24 426.13 282.65 426.01 282.65 425.87C282.65 425.73 298.23 425.61 317.45 425.61C336.67 425.61 352.24 425.72 352.24 425.87Z" fill="white"/>
<path d="M96.4404 411.39C97.7873 411.715 99.0547 412.308 100.167 413.134C101.278 413.961 102.212 415.004 102.91 416.2C104.293 418.609 105.11 421.3 105.3 424.07C105.81 429.39 103.96 435.26 101.66 440.07C96.4704 437.17 94.0604 430.72 93.0404 427.37C91.4304 422.08 91.7304 411.53 96.4404 411.37" fill="#455A64"/>
<path d="M108.56 447.59C107.941 446.173 107.707 444.617 107.882 443.08C108.058 441.544 108.637 440.081 109.56 438.84C110.511 437.619 111.696 436.599 113.045 435.842C114.395 435.085 115.883 434.605 117.42 434.43C118.111 434.281 118.825 434.281 119.515 434.431C120.205 434.581 120.855 434.878 121.42 435.3C121.88 435.788 122.201 436.391 122.349 437.045C122.496 437.7 122.466 438.382 122.26 439.02C121.836 440.292 121.084 441.43 120.08 442.32C116.79 445.5 113.02 447.97 108.46 447.59" fill="#455A64"/>
<path d="M106.32 464.72C106.261 464.357 106.238 463.988 106.25 463.62C106.25 462.84 106.25 461.83 106.17 460.62C105.967 457.305 106.304 453.978 107.17 450.77C108.1 447.554 109.871 444.644 112.3 442.34C113.044 441.656 113.867 441.062 114.75 440.57C114.986 440.436 115.23 440.315 115.48 440.21C115.563 440.16 115.655 440.126 115.75 440.11C114.586 440.81 113.494 441.624 112.49 442.54C110.143 444.851 108.422 447.721 107.49 450.88C106.63 454.052 106.249 457.336 106.36 460.62C106.36 461.89 106.36 462.91 106.36 463.62C106.374 463.988 106.361 464.355 106.32 464.72Z" fill="#263238"/>
<path d="M96.9202 419.45C96.9842 419.595 97.0344 419.746 97.0702 419.9C97.1702 420.24 97.2902 420.68 97.4302 421.22C97.7402 422.37 98.1702 424.04 98.6702 426.11C99.6702 430.25 101.01 435.99 102.33 442.35C103.65 448.71 104.71 454.51 105.42 458.71C105.77 460.81 106.04 462.51 106.22 463.71C106.3 464.27 106.36 464.71 106.41 465.07C106.426 465.23 106.426 465.391 106.41 465.55C106.359 465.397 106.318 465.24 106.29 465.08C106.22 464.73 106.14 464.29 106.03 463.73C105.8 462.52 105.49 460.83 105.11 458.78C104.33 454.59 103.23 448.78 101.91 442.45C100.59 436.12 99.3102 430.35 98.3702 426.2C97.9002 424.2 97.5202 422.49 97.2502 421.28C97.1302 420.73 97.0302 420.28 96.9602 419.94C96.9279 419.779 96.9145 419.615 96.9202 419.45Z" fill="#263238"/>
<path d="M101.66 452.36C100.458 449.33 98.5519 446.629 96.1004 444.48C93.6489 442.331 90.7217 440.795 87.5602 440C85.9502 439.61 83.9502 439.56 82.9702 440.9C81.9902 442.24 82.6802 444.14 83.5902 445.53C85.5357 448.388 88.2816 450.608 91.4837 451.912C94.6857 453.216 98.2015 453.546 101.59 452.86" fill="#455A64"/>
<path d="M89.3203 444.73C89.6589 444.772 89.9933 444.842 90.3203 444.94C90.7161 445.032 91.1066 445.146 91.4903 445.28C91.9303 445.44 92.4903 445.58 93.0003 445.83C93.5103 446.08 94.1603 446.32 94.7703 446.66C95.44 446.999 96.0879 447.38 96.7103 447.8C98.144 448.751 99.4628 449.865 100.64 451.12C101.795 452.392 102.801 453.791 103.64 455.29C104.01 455.938 104.344 456.606 104.64 457.29C104.896 457.891 105.12 458.505 105.31 459.13C105.51 459.69 105.59 460.23 105.71 460.69C105.806 461.086 105.88 461.486 105.93 461.89C105.992 462.22 106.025 462.554 106.03 462.89C105.94 462.89 105.78 461.43 105.03 459.18C104.832 458.571 104.602 457.974 104.34 457.39C104.044 456.706 103.71 456.038 103.34 455.39C102.492 453.925 101.486 452.557 100.34 451.31C99.1782 450.083 97.8913 448.98 96.5003 448.02C95.8403 447.6 95.2203 447.19 94.6003 446.88C94.0401 446.561 93.4625 446.274 92.8703 446.02C90.7403 445.14 89.2903 444.81 89.3203 444.73Z" fill="#263238"/>
<path d="M121.1 151.7L117.4 140.15C122.663 131.61 124.541 121.411 122.665 111.557C120.789 101.702 115.295 92.9064 107.263 86.8975C99.2304 80.8885 89.241 78.1014 79.2581 79.0839C69.2752 80.0665 60.0209 84.7476 53.3142 92.2071C46.6076 99.6667 42.9338 109.365 43.015 119.396C43.0962 129.427 46.9265 139.064 53.753 146.414C60.5795 153.764 69.9084 158.295 79.9059 159.116C89.9034 159.937 99.8463 156.988 107.78 150.85L121.1 151.7Z" fill="#FAFAFA"/>
<path d="M121.1 151.7H120.26L117.72 151.57L107.72 151.02C107.705 151.02 107.69 151.017 107.676 151.011C107.661 151.005 107.649 150.996 107.639 150.985C107.628 150.973 107.62 150.96 107.615 150.945C107.61 150.931 107.609 150.915 107.61 150.9C107.606 150.88 107.606 150.86 107.61 150.84L107.77 151C100.821 156.428 92.2768 159.412 83.46 159.49C81.2333 159.478 79.0105 159.301 76.81 158.96C66.5855 157.36 57.3763 151.867 51.11 143.63C47.6202 138.994 45.1619 133.665 43.9 128C42.5288 121.978 42.5836 115.718 44.06 109.72C44.25 108.96 44.45 108.19 44.65 107.43C44.85 106.67 45.18 105.93 45.44 105.18C45.6934 104.422 45.9872 103.677 46.32 102.95C46.66 102.23 47.01 101.51 47.32 100.78C47.6642 100.05 48.0584 99.3454 48.5 98.6702L49.77 96.5902L51.23 94.5902L51.97 93.5902C52.22 93.2702 52.51 92.9802 52.78 92.6702C57.1045 87.6981 62.5904 83.8714 68.75 81.5302C74.614 79.2959 80.9108 78.4305 87.16 79.0002C93.0322 79.5841 98.7034 81.4551 103.77 84.4802C112.774 89.8279 119.342 98.4721 122.08 108.58C122.659 110.746 123.073 112.952 123.32 115.18C123.48 117.263 123.517 119.353 123.43 121.44C123.047 128.091 121.005 134.541 117.49 140.2V140.11C118.67 143.87 119.57 146.77 120.19 148.75C120.49 149.75 120.71 150.44 120.87 150.95L121.09 151.69C121.09 151.69 120.99 151.42 120.82 150.92L120.09 148.71C119.45 146.71 118.5 143.89 117.28 140.18C117.269 140.151 117.269 140.119 117.28 140.09C120.729 134.443 122.718 128.027 123.07 121.42C123.147 119.353 123.1 117.282 122.93 115.22C122.68 113.012 122.262 110.825 121.68 108.68C119.535 100.899 115.086 93.9484 108.918 88.7422C102.75 83.5361 95.1511 80.3178 87.12 79.5102C80.9495 78.9455 74.7315 79.7971 68.94 82.0002C62.874 84.3214 57.472 88.099 53.21 93.0002C52.95 93.3102 52.66 93.5902 52.41 93.9102L51.68 94.9102L50.24 96.8402L49 98.9002C48.5601 99.573 48.1659 100.275 47.82 101C47.48 101.71 47.14 102.43 46.82 103.14C46.4938 103.857 46.2067 104.592 45.96 105.34C45.7 106.08 45.39 106.81 45.17 107.56C44.95 108.31 44.78 109.07 44.59 109.82C43.14 115.726 43.0784 121.887 44.41 127.82C46.1428 135.612 50.1761 142.703 55.987 148.175C61.7979 153.648 69.1185 157.248 77 158.51C79.1805 158.853 81.383 159.036 83.59 159.06C85.6502 159.051 87.7066 158.881 89.74 158.55C96.2921 157.483 102.477 154.806 107.74 150.76C107.75 150.749 107.763 150.741 107.776 150.735C107.79 150.729 107.805 150.726 107.82 150.726C107.835 150.726 107.85 150.729 107.864 150.735C107.877 150.741 107.89 150.749 107.9 150.76C107.915 150.781 107.923 150.805 107.923 150.83C107.923 150.855 107.915 150.88 107.9 150.9L107.82 150.72L117.7 151.4L120.26 151.58L121.1 151.7Z" fill="#263238"/>
<path d="M71.9398 119.14C71.9398 119.945 71.7011 120.732 71.2539 121.401C70.8067 122.071 70.171 122.592 69.4273 122.901C68.6836 123.209 67.8653 123.289 67.0758 123.132C66.2863 122.975 65.5611 122.587 64.9919 122.018C64.4227 121.449 64.0351 120.724 63.878 119.934C63.721 119.145 63.8016 118.326 64.1096 117.583C64.4177 116.839 64.9393 116.203 65.6086 115.756C66.2779 115.309 67.0648 115.07 67.8698 115.07C68.9484 115.073 69.9821 115.503 70.7448 116.265C71.5075 117.028 71.9372 118.062 71.9398 119.14Z" fill="#263238"/>
<path d="M88.2401 119.14C88.2401 119.945 88.0014 120.732 87.5542 121.401C87.107 122.071 86.4713 122.592 85.7276 122.901C84.9839 123.209 84.1656 123.289 83.3761 123.132C82.5866 122.975 81.8614 122.587 81.2922 122.018C80.723 121.449 80.3353 120.724 80.1783 119.934C80.0213 119.145 80.1019 118.326 80.4099 117.583C80.718 116.839 81.2396 116.203 81.9089 115.756C82.5782 115.309 83.3651 115.07 84.1701 115.07C85.2487 115.073 86.2824 115.503 87.0451 116.265C87.8078 117.028 88.2375 118.062 88.2401 119.14Z" fill="#263238"/>
<path d="M104.5 117.11C104.902 117.807 105.087 118.608 105.034 119.41C104.981 120.213 104.691 120.982 104.201 121.619C103.711 122.257 103.043 122.736 102.281 122.994C101.519 123.253 100.698 123.28 99.9211 123.072C99.144 122.864 98.446 122.431 97.9151 121.826C97.3843 121.222 97.0444 120.474 96.9383 119.677C96.8323 118.879 96.965 118.069 97.3195 117.346C97.674 116.624 98.2345 116.024 98.9303 115.62C99.3936 115.351 99.9054 115.176 100.436 115.106C100.967 115.035 101.507 115.07 102.025 115.209C102.542 115.347 103.027 115.586 103.452 115.912C103.877 116.239 104.233 116.646 104.5 117.11Z" fill="#263238"/>
<path d="M106.12 299L63.9998 294.64L46.1598 254.15L32.2998 257.76C32.2998 257.76 42.5398 300.55 53.9998 307.18C65.4598 313.81 104.61 315 104.61 315L106.12 299Z" fill="#6E65CB"/>
<path d="M128.512 319.594C135.365 311.883 134.67 300.076 126.959 293.222C119.248 286.368 107.441 287.064 100.587 294.775C93.7336 302.486 94.4289 314.293 102.14 321.147C109.851 328 121.658 327.305 128.512 319.594Z" fill="#263238"/>
<path d="M114.55 325.88C110.221 325.88 106.026 324.379 102.68 321.633C99.3342 318.887 97.0438 315.066 96.1994 310.82C95.3549 306.575 96.0086 302.168 98.0492 298.35C100.09 294.533 103.391 291.541 107.39 289.884C111.389 288.228 115.839 288.009 119.981 289.266C124.123 290.522 127.702 293.176 130.107 296.775C132.512 300.374 133.594 304.696 133.17 309.004C132.745 313.312 130.841 317.339 127.78 320.4C126.046 322.143 123.985 323.524 121.714 324.465C119.443 325.406 117.008 325.887 114.55 325.88ZM114.55 288.52C110.233 288.516 106.048 290.008 102.708 292.743C99.3679 295.479 97.0796 299.287 96.233 303.52C95.3863 307.754 96.0336 312.149 98.0646 315.959C100.096 319.768 103.385 322.756 107.371 324.412C111.358 326.068 115.796 326.291 119.928 325.042C124.061 323.794 127.632 321.151 130.035 317.564C132.437 313.977 133.521 309.668 133.103 305.371C132.684 301.075 130.789 297.056 127.74 294C126.013 292.26 123.958 290.879 121.694 289.939C119.43 288.998 117.001 288.516 114.55 288.52Z" fill="#263238"/>
<path d="M60.2241 310.379C67.7478 308.572 72.3827 301.009 70.5764 293.485C68.7702 285.961 61.2067 281.326 53.683 283.133C46.1592 284.939 41.5243 292.503 43.3306 300.026C45.1369 307.55 52.7004 312.185 60.2241 310.379Z" fill="#263238"/>
<path d="M46.315 257.424C50.7865 252.952 50.7865 245.702 46.315 241.231C41.8435 236.759 34.5938 236.759 30.1223 241.231C25.6507 245.702 25.6507 252.952 30.1222 257.424C34.5938 261.895 41.8435 261.895 46.315 257.424Z" fill="#263238"/>
<path d="M56.0651 243.131L46.6371 251.092L43.237 247.066L52.665 239.104C53.1614 238.685 53.8041 238.48 54.4516 238.535C55.099 238.589 55.6983 238.899 56.1176 239.395L56.3498 239.67C56.559 239.916 56.7175 240.2 56.8164 240.507C56.9153 240.815 56.9526 241.138 56.9262 241.46C56.8997 241.781 56.8101 242.094 56.6623 242.381C56.5145 242.668 56.3116 242.922 56.0651 243.131Z" fill="#263238"/>
<path d="M44.0898 228.55V240.55C44.0898 240.643 44.053 240.732 43.9873 240.798C43.9217 240.863 43.8327 240.9 43.7399 240.9H39.1799C39.087 240.9 38.998 240.863 38.9324 240.798C38.8667 240.732 38.8298 240.643 38.8298 240.55V228.55C38.8298 227.9 39.088 227.277 39.5474 226.818C40.0069 226.358 40.6301 226.1 41.2798 226.1H41.6398C42.2896 226.1 42.9128 226.358 43.3723 226.818C43.8317 227.277 44.0898 227.9 44.0898 228.55Z" fill="#263238"/>
<path d="M35.5988 228.595L38.2186 240.306C38.2389 240.397 38.2223 240.492 38.1726 240.57C38.1229 240.648 38.044 240.704 37.9534 240.724L33.5034 241.72C33.4129 241.74 33.3179 241.723 33.2395 241.674C33.1612 241.624 33.1057 241.545 33.0855 241.454L30.4657 229.744C30.3239 229.11 30.4397 228.445 30.7878 227.897C31.1359 227.348 31.6876 226.96 32.3217 226.818L32.6731 226.739C33.3072 226.598 33.9717 226.713 34.5203 227.062C35.069 227.41 35.457 227.961 35.5988 228.595Z" fill="#263238"/>
<path d="M26.4643 231.53L32.4643 241.922C32.5107 242.003 32.5232 242.098 32.4992 242.188C32.4752 242.278 32.4165 242.354 32.3361 242.4L28.3871 244.68C28.3067 244.727 28.2112 244.739 28.1215 244.715C28.0318 244.691 27.9554 244.633 27.909 244.552L21.909 234.16C21.5841 233.597 21.496 232.929 21.6642 232.301C21.8324 231.673 22.243 231.138 22.8057 230.813L23.1175 230.633C23.6802 230.308 24.349 230.22 24.9766 230.388C25.6042 230.557 26.1394 230.967 26.4643 231.53Z" fill="#263238"/>
<path d="M289.178 403.89L301.786 398.528L265.407 312.993L252.8 318.355L289.178 403.89Z" fill="#6E65CB"/>
<path d="M267.215 321.166C273.883 313.294 272.908 301.507 265.036 294.839C257.165 288.17 245.377 289.145 238.709 297.017C232.04 304.889 233.016 316.676 240.887 323.345C248.759 330.013 260.546 329.038 267.215 321.166Z" fill="#263238"/>
<path d="M253 327.84C250.069 327.841 247.179 327.155 244.562 325.835C241.945 324.516 239.675 322.6 237.934 320.243C236.192 317.886 235.029 315.153 234.536 312.264C234.044 309.375 234.237 306.411 235.1 303.61C236.122 300.306 238.041 297.351 240.643 295.073C243.244 292.794 246.427 291.282 249.836 290.703C253.246 290.125 256.749 290.503 259.956 291.797C263.163 293.09 265.949 295.247 268.004 298.029C270.059 300.81 271.302 304.107 271.596 307.553C271.889 310.998 271.222 314.458 269.667 317.547C268.112 320.636 265.731 323.233 262.789 325.051C259.847 326.868 256.458 327.833 253 327.84ZM253 290.46C249.547 290.463 246.164 291.425 243.225 293.237C240.286 295.049 237.908 297.64 236.355 300.723C234.801 303.807 234.133 307.26 234.426 310.7C234.718 314.14 235.959 317.432 238.011 320.208C240.062 322.985 242.844 325.138 246.046 326.428C249.248 327.718 252.746 328.095 256.149 327.515C259.553 326.936 262.729 325.424 265.324 323.148C267.919 320.871 269.832 317.919 270.85 314.62C272.302 309.892 271.82 304.782 269.508 300.41C267.197 296.037 263.245 292.761 258.52 291.3C256.713 290.74 254.831 290.457 252.94 290.46H253Z" fill="#263238"/>
<path d="M290.784 364.944C292.855 357.489 288.491 349.766 281.036 347.694C273.581 345.622 265.858 349.986 263.787 357.441C261.715 364.896 266.079 372.619 273.534 374.691C280.989 376.763 288.712 372.399 290.784 364.944Z" fill="#263238"/>
<path d="M298.41 416.25C304.734 416.25 309.86 411.123 309.86 404.8C309.86 398.476 304.734 393.35 298.41 393.35C292.086 393.35 286.96 398.476 286.96 404.8C286.96 411.123 292.086 416.25 298.41 416.25Z" fill="#263238"/>
<path d="M283.434 416.331L289.846 405.811L294.346 408.553L287.934 419.073C287.596 419.628 287.051 420.026 286.42 420.179C285.789 420.332 285.122 420.229 284.567 419.89L284.26 419.703C283.984 419.536 283.743 419.317 283.552 419.057C283.361 418.797 283.223 418.502 283.147 418.188C283.07 417.875 283.056 417.55 283.105 417.231C283.154 416.912 283.266 416.606 283.434 416.331Z" fill="#263238"/>
<path d="M299.398 426.364L295.598 414.982C295.569 414.894 295.575 414.798 295.617 414.715C295.658 414.632 295.731 414.569 295.819 414.539L300.145 413.095C300.233 413.066 300.329 413.073 300.412 413.114C300.495 413.156 300.558 413.228 300.587 413.316L304.387 424.699C304.485 425.005 304.522 425.328 304.495 425.649C304.469 425.969 304.379 426.282 304.232 426.568C304.085 426.854 303.883 427.108 303.637 427.316C303.392 427.524 303.107 427.682 302.801 427.78L302.459 427.894C301.851 428.089 301.189 428.038 300.617 427.752C300.045 427.467 299.608 426.969 299.398 426.364Z" fill="#263238"/>
<path d="M307.447 423.636L301.254 413.358C301.23 413.319 301.214 413.275 301.207 413.229C301.2 413.184 301.203 413.138 301.214 413.093C301.225 413.048 301.244 413.006 301.272 412.969C301.299 412.932 301.333 412.901 301.373 412.878L305.278 410.524C305.318 410.5 305.361 410.485 305.407 410.478C305.452 410.471 305.499 410.473 305.543 410.484C305.588 410.495 305.63 410.515 305.667 410.542C305.704 410.57 305.735 410.604 305.759 410.643L311.952 420.922C312.287 421.478 312.388 422.145 312.231 422.776C312.075 423.407 311.674 423.949 311.118 424.285L310.809 424.47C310.253 424.806 309.586 424.906 308.955 424.75C308.325 424.593 307.782 424.193 307.447 423.636Z" fill="#263238"/>
<path d="M315.177 417.97L306.195 410.012C306.126 409.95 306.083 409.864 306.078 409.771C306.072 409.678 306.104 409.587 306.165 409.518L309.182 406.112C309.244 406.043 309.331 406 309.423 405.995C309.516 405.989 309.607 406.021 309.677 406.082L318.658 414.04C319.145 414.471 319.44 415.077 319.479 415.726C319.518 416.374 319.298 417.012 318.868 417.498L318.629 417.768C318.197 418.251 317.591 418.544 316.944 418.582C316.298 418.619 315.662 418.399 315.177 417.97Z" fill="#263238"/>
<path d="M109 287.74C109 287.74 110.35 418.88 183.94 421.44C257.53 424 260.62 288.68 260.62 287.74C260.62 287.74 251.93 268.19 184.81 268.95C117.69 269.71 109 287.74 109 287.74Z" fill="#6E65CB"/>
<path d="M150.32 264.66H212.52C216.579 264.66 219.87 261.369 219.87 257.31V256.24C219.87 252.18 216.579 248.89 212.52 248.89H150.32C146.261 248.89 142.97 252.18 142.97 256.24V257.31C142.97 261.369 146.261 264.66 150.32 264.66Z" fill="#263238"/>
<path d="M178.74 148.05H184.11V120.9H178.74V148.05Z" fill="#263238"/>
<path d="M263.534 228.877C272.013 226.862 277.253 218.355 275.238 209.876C273.223 201.397 264.715 196.157 256.237 198.172C247.758 200.188 242.518 208.695 244.533 217.174C246.548 225.652 255.056 230.892 263.534 228.877Z" fill="#6E65CB"/>
<path d="M104.086 227.852C112.585 225.924 117.912 217.471 115.985 208.972C114.057 200.473 105.604 195.146 97.1049 197.074C88.6057 199.002 83.2786 207.454 85.2065 215.954C87.1343 224.453 95.5871 229.78 104.086 227.852Z" fill="#6E65CB"/>
<path d="M178.3 142.16C178.3 142.16 114.14 141.39 104 197C93.8602 252.61 148.1 253.61 163.71 254.66C170.78 255.14 185.92 255.19 199.28 254.95C228.86 254.44 249.76 248.72 256.87 221.28C257.717 218.062 258.249 214.77 258.46 211.45C260.33 181.33 240 140.68 178.3 142.16Z" fill="#6E65CB"/>
<path d="M224.84 226.8L131.63 228.25C129.304 228.291 126.993 227.873 124.83 227.02C122.666 226.166 120.691 224.895 119.019 223.278C117.347 221.661 116.011 219.73 115.086 217.595C114.161 215.461 113.666 213.165 113.63 210.84C113.59 208.514 114.01 206.202 114.864 204.038C115.718 201.874 116.99 199.9 118.608 198.228C120.226 196.557 122.158 195.22 124.293 194.295C126.428 193.371 128.724 192.876 131.05 192.84L224.26 191.39C226.586 191.347 228.898 191.764 231.062 192.617C233.227 193.47 235.201 194.741 236.874 196.359C238.546 197.976 239.882 199.907 240.807 202.042C241.731 204.177 242.225 206.474 242.26 208.8C242.301 211.126 241.883 213.438 241.029 215.602C240.175 217.767 238.903 219.742 237.285 221.414C235.666 223.086 233.734 224.422 231.599 225.347C229.463 226.271 227.167 226.765 224.84 226.8Z" fill="#263238"/>
<path d="M151 208.91C150.783 210.012 150.244 211.025 149.452 211.821C148.659 212.617 147.649 213.16 146.547 213.382C145.446 213.604 144.304 213.494 143.265 213.066C142.226 212.639 141.338 211.913 140.711 210.981C140.085 210.048 139.749 208.951 139.747 207.828C139.744 206.705 140.074 205.606 140.696 204.67C141.318 203.735 142.203 203.004 143.239 202.572C144.276 202.139 145.418 202.024 146.52 202.24C147.252 202.384 147.949 202.67 148.57 203.083C149.192 203.496 149.726 204.027 150.142 204.647C150.558 205.266 150.848 205.962 150.995 206.693C151.142 207.425 151.144 208.178 151 208.91Z" fill="white"/>
<path d="M216.09 207.87C215.875 208.973 215.338 209.988 214.546 210.785C213.754 211.583 212.744 212.127 211.642 212.35C210.541 212.574 209.398 212.465 208.359 212.038C207.319 211.612 206.429 210.886 205.802 209.954C205.175 209.021 204.838 207.924 204.835 206.8C204.832 205.676 205.162 204.577 205.784 203.641C206.405 202.705 207.291 201.974 208.328 201.541C209.365 201.109 210.507 200.993 211.61 201.21C213.087 201.5 214.388 202.365 215.228 203.613C216.068 204.862 216.378 206.393 216.09 207.87Z" fill="white"/>
<path d="M206.72 339.82C206.355 344.824 204.514 349.608 201.43 353.566C198.346 357.524 194.158 360.478 189.395 362.056C184.632 363.634 179.508 363.764 174.671 362.43C169.834 361.095 165.502 358.357 162.221 354.56C158.941 350.764 156.859 346.08 156.241 341.101C155.622 336.121 156.494 331.07 158.746 326.587C160.998 322.103 164.529 318.387 168.892 315.91C173.256 313.433 178.256 312.306 183.26 312.67C189.971 313.161 196.211 316.297 200.611 321.388C205.01 326.48 207.207 333.109 206.72 339.82Z" fill="#263238"/>
<path d="M199.85 339.32C199.583 342.967 198.241 346.453 195.993 349.338C193.744 352.222 190.691 354.375 187.219 355.524C183.748 356.673 180.013 356.767 176.488 355.793C172.963 354.82 169.806 352.823 167.415 350.055C165.025 347.288 163.509 343.873 163.06 340.244C162.61 336.615 163.247 332.933 164.889 329.666C166.532 326.399 169.106 323.692 172.287 321.887C175.468 320.083 179.113 319.263 182.76 319.53C185.182 319.706 187.546 320.358 189.716 321.448C191.886 322.538 193.82 324.045 195.407 325.883C196.994 327.721 198.203 329.854 198.966 332.159C199.728 334.465 200.029 336.898 199.85 339.32Z" fill="white"/>
<path d="M190.94 342.68C190.799 341.669 190.742 340.649 190.77 339.63C190.72 337.72 190.68 334.99 190.68 331.63L190.88 332L181.37 326.45H181.9L172.3 331.84C172.04 332.28 172.65 331.25 172.59 331.36V332.78V334.21C172.59 335.15 172.59 336.09 172.54 337.01C172.54 338.85 172.47 340.63 172.44 342.35L172.18 341.89L181.58 347.63H181.16C184.09 346.05 186.51 344.79 188.16 343.93C189.048 343.424 189.974 342.99 190.93 342.63C190.184 343.237 189.38 343.77 188.53 344.22C186.91 345.22 184.53 346.63 181.53 348.36L181.32 348.48L181.11 348.36L171.59 342.81L171.33 342.66V342.34C171.33 340.62 171.35 338.84 171.39 337C171.39 336.08 171.39 335.15 171.39 334.2V332.78V331.4C171.33 331.51 171.94 330.49 171.68 330.92L181.31 325.58L181.59 325.43L181.85 325.59L191.24 331.33L191.45 331.46V331.7C191.34 335.16 191.23 337.94 191.13 339.83C191.156 340.784 191.092 341.738 190.94 342.68Z" fill="#6E65CB"/>
<path d="M187.689 126.608C191.145 123.151 191.145 117.548 187.689 114.092C184.233 110.636 178.629 110.636 175.173 114.092C171.717 117.548 171.717 123.151 175.173 126.608C178.629 130.064 184.233 130.064 187.689 126.608Z" fill="#6E65CB"/>
<path d="M167.29 206.29C167.71 206.34 167.5 208.29 168.74 210.96C169.443 212.492 170.466 213.856 171.74 214.96C173.234 216.274 175.094 217.101 177.07 217.33C179.057 217.458 181.037 216.984 182.75 215.97C184.2 215.127 185.455 213.985 186.43 212.62C188.13 210.25 188.28 208.26 188.7 208.29C188.87 208.29 189.04 208.79 189.04 209.73C189.002 211.069 188.66 212.382 188.04 213.57C187.108 215.365 185.731 216.89 184.04 218C181.95 219.473 179.403 220.154 176.857 219.921C174.31 219.689 171.929 218.557 170.14 216.73C168.68 215.334 167.605 213.584 167.02 211.65C166.603 210.36 166.494 208.99 166.7 207.65C166.87 206.72 167.13 206.26 167.29 206.29Z" fill="white"/>
<path d="M252.72 232.2C252.62 232.2 253.77 230.4 254.88 227.25C256.26 223.124 257.134 218.846 257.48 214.51C257.88 210.189 257.981 205.845 257.78 201.51C257.71 199.84 257.63 198.51 257.55 197.51C257.482 197.026 257.466 196.537 257.5 196.05C257.628 196.521 257.712 197.003 257.75 197.49C257.89 198.42 258.03 199.77 258.15 201.49C258.464 205.86 258.413 210.248 258 214.61C257.648 218.987 256.717 223.298 255.23 227.43C254.759 228.676 254.191 229.883 253.53 231.04C253.294 231.449 253.023 231.837 252.72 232.2Z" fill="#263238"/>
<path d="M104.12 195.14C104.063 195.625 103.959 196.104 103.81 196.57C103.68 197.02 103.54 197.57 103.41 198.23C103.28 198.89 103.08 199.61 102.96 200.44C102.609 202.367 102.376 204.314 102.26 206.27C102.125 208.662 102.159 211.062 102.36 213.45C102.583 215.834 102.971 218.199 103.52 220.53C103.979 222.436 104.553 224.313 105.24 226.15C105.51 226.94 105.82 227.63 106.07 228.25C106.32 228.87 106.56 229.39 106.76 229.81C106.988 230.241 107.175 230.693 107.32 231.16C107.035 230.763 106.788 230.341 106.58 229.9C106.297 229.4 106.04 228.886 105.81 228.36C105.53 227.76 105.19 227.07 104.9 226.28C104.157 224.448 103.543 222.567 103.06 220.65C102.475 218.297 102.067 215.903 101.84 213.49C101.636 211.078 101.616 208.654 101.78 206.24C101.919 204.267 102.193 202.305 102.6 200.37C102.75 199.54 102.96 198.81 103.13 198.16C103.3 197.51 103.46 196.96 103.61 196.51C103.742 196.04 103.913 195.582 104.12 195.14Z" fill="#263238"/>
<path d="M108.66 287.63L109.04 287.74L110.16 288.12L114.42 289.62L117.5 290.72C118.63 291.1 119.88 291.46 121.21 291.87C123.88 292.66 126.89 293.69 130.31 294.49L135.64 295.86C137.5 296.33 139.46 296.68 141.48 297.12C145.48 298.04 149.87 298.67 154.48 299.41C164.45 300.778 174.497 301.496 184.56 301.56C194.623 301.501 204.671 300.783 214.64 299.41C219.22 298.67 223.58 298.05 227.64 297.12C229.64 296.69 231.64 296.34 233.48 295.87L238.82 294.5C242.23 293.7 245.24 292.67 247.91 291.88C249.24 291.47 250.49 291.11 251.62 290.73L254.7 289.63L258.96 288.13L260.08 287.75C260.206 287.7 260.337 287.663 260.47 287.64L260.1 287.8L259 288.23L254.77 289.82L251.62 291C250.5 291.39 249.25 291.76 247.92 292.19C245.25 293.01 242.25 294.06 238.83 294.89L233.49 296.29C231.64 296.77 229.67 297.13 227.65 297.58C223.65 298.52 219.25 299.16 214.65 299.92C204.66 301.322 194.588 302.053 184.5 302.11C174.416 302.046 164.347 301.311 154.36 299.91C149.77 299.16 145.36 298.51 141.36 297.57C139.36 297.12 137.36 296.76 135.52 296.28L130.18 294.88C126.76 294.05 123.76 293 121.09 292.18C119.76 291.75 118.52 291.38 117.39 290.99L114.32 289.84L110.09 288.25L108.99 287.82C108.874 287.767 108.764 287.704 108.66 287.63Z" fill="#263238"/>
<g opacity="0.3">
<path d="M109 287.74C109 287.74 117.69 269.74 184.81 268.95C251.93 268.16 260.62 287.74 260.62 287.74C260.62 287.74 192.88 321.13 109 287.74Z" fill="black"/>
</g>
<path d="M170.17 146.32C170.094 146.327 170.017 146.327 169.94 146.32L169.27 146.39C168.67 146.45 167.79 146.47 166.66 146.6C163.472 146.909 160.308 147.434 157.19 148.17C141.065 151.863 126.842 161.314 117.19 174.75C112.527 181.206 108.997 188.409 106.75 196.05C106.4 197.13 106.21 197.99 106.04 198.56L105.85 199.22C105.832 199.296 105.805 199.37 105.77 199.44C105.757 199.364 105.757 199.286 105.77 199.21C105.77 199.03 105.85 198.81 105.91 198.54C106.05 197.96 106.2 197.09 106.52 195.99C107.355 192.883 108.425 189.844 109.72 186.9C113.995 177.115 120.502 168.467 128.72 161.65C136.974 154.884 146.696 150.144 157.11 147.81C160.246 147.097 163.432 146.626 166.64 146.4C167.78 146.3 168.64 146.31 169.26 146.28H169.94C170.1 146.3 170.17 146.31 170.17 146.32Z" fill="white"/>
<path d="M107.4 223.3C106.999 222.68 106.689 222.007 106.48 221.3C105.294 217.958 104.741 214.424 104.85 210.88C104.821 210.144 104.909 209.408 105.11 208.7C105.27 208.7 105.05 212.04 105.69 216.08C106.33 220.12 107.55 223.24 107.4 223.3Z" fill="white"/>
<path d="M90.5698 218.13C90.5698 218.13 90.3398 217.97 90.0298 217.59C89.5879 217.051 89.2088 216.464 88.8998 215.84C87.8319 213.772 87.4233 211.428 87.7291 209.121C88.0348 206.815 89.0402 204.657 90.6098 202.94C91.0695 202.414 91.5898 201.944 92.1598 201.54C92.3556 201.375 92.579 201.246 92.8198 201.16C92.8798 201.24 91.9798 201.85 90.8898 203.16C89.4592 204.873 88.5439 206.957 88.2501 209.169C87.9563 211.382 88.296 213.632 89.2298 215.66C89.9298 217.25 90.6398 218.07 90.5698 218.13Z" fill="white"/>
<path d="M182 114.18C181.22 114.094 180.433 114.077 179.65 114.13C178.717 114.212 177.816 114.506 177.014 114.99C176.213 115.475 175.534 116.136 175.028 116.924C174.522 117.712 174.203 118.605 174.096 119.535C173.989 120.465 174.096 121.408 174.41 122.29C174.68 123.021 175.015 123.727 175.41 124.4C175.41 124.4 175.21 124.28 174.93 123.96C174.546 123.497 174.241 122.973 174.03 122.41C173.648 121.476 173.497 120.464 173.59 119.459C173.682 118.455 174.015 117.487 174.561 116.639C175.106 115.79 175.848 115.086 176.723 114.584C177.599 114.083 178.582 113.8 179.59 113.76C180.189 113.718 180.79 113.776 181.37 113.93C181.82 114 182 114.15 182 114.18Z" fill="white"/>
<path d="M269.16 206C269.05 206.12 267.5 204.63 265.16 203.51C262.82 202.39 260.69 202.06 260.71 201.9C262.34 201.859 263.952 202.253 265.38 203.04C266.883 203.669 268.189 204.691 269.16 206Z" fill="white"/>
<path d="M132 381.07C131.954 381.01 131.914 380.947 131.88 380.88L131.55 380.29C131.25 379.72 130.85 378.96 130.33 377.99C130.07 377.49 129.79 376.93 129.47 376.33L128.53 374.33C127.85 372.88 127.09 371.23 126.34 369.33C125.96 368.4 125.56 367.42 125.14 366.41C124.72 365.4 124.36 364.3 123.95 363.19C123.09 360.98 122.36 358.55 121.51 356.03C119.94 350.93 118.4 345.28 117.05 339.28C115.7 333.28 114.72 327.49 113.92 322.22C113.12 316.95 112.6 312.22 112.28 308.16C112.09 306.16 111.97 304.34 111.87 302.74C111.77 301.14 111.68 299.74 111.65 298.64C111.62 297.54 111.59 296.69 111.56 296.05V295.38C111.549 295.304 111.549 295.226 111.56 295.15C111.571 295.226 111.571 295.304 111.56 295.38L111.62 296.05C111.62 296.68 111.73 297.55 111.8 298.63C111.87 299.71 111.97 301.13 112.11 302.72C112.25 304.31 112.38 306.13 112.6 308.13C112.96 312.13 113.6 316.89 114.35 322.13C115.1 327.37 116.19 333.13 117.51 339.13C118.83 345.13 120.38 350.77 121.91 355.86C122.76 358.38 123.47 360.8 124.31 363.01C124.71 364.13 125.09 365.2 125.47 366.23L126.63 369.17C127.35 371.04 128.09 372.7 128.75 374.17L129.65 376.17C129.94 376.78 130.22 377.34 130.47 377.85L131.59 380.19L131.87 380.8C131.93 380.881 131.975 380.972 132 381.07Z" fill="white"/>
<path d="M92.87 299.54C90.4303 299.632 87.9871 299.545 85.56 299.28C83.1216 299.194 80.6923 298.937 78.29 298.51C80.7298 298.417 83.173 298.504 85.6 298.77C88.0385 298.854 90.4679 299.112 92.87 299.54Z" fill="white"/>
<path d="M55.2501 278.19C53.8318 276.124 52.5588 273.962 51.4401 271.72C50.1723 269.56 49.0563 267.315 48.1001 265C49.5141 267.07 50.7837 269.235 51.9001 271.48C53.1744 273.634 54.2939 275.877 55.2501 278.19Z" fill="white"/>
<path d="M167.5 412.6C167.106 412.592 166.714 412.546 166.33 412.46C165.272 412.271 164.226 412.017 163.2 411.7C161.675 411.235 160.184 410.664 158.74 409.99C156.98 409.141 155.288 408.158 153.68 407.05C152.089 405.913 150.591 404.653 149.2 403.28C148.073 402.151 147.03 400.941 146.08 399.66C145.429 398.805 144.837 397.906 144.31 396.97C144.094 396.641 143.916 396.289 143.78 395.92C143.86 395.87 144.7 397.32 146.37 399.44C147.351 400.672 148.41 401.841 149.54 402.94C152.308 405.629 155.484 407.863 158.95 409.56C160.366 410.244 161.822 410.841 163.31 411.35C165.87 412.21 167.52 412.5 167.5 412.6Z" fill="white"/>
<path d="M182.84 366.34C182.609 366.38 182.375 366.404 182.14 366.41C181.475 366.466 180.807 366.486 180.14 366.47C177.653 366.415 175.186 366.015 172.81 365.28C171.168 364.769 169.569 364.127 168.03 363.36C166.265 362.452 164.59 361.377 163.03 360.15C159.415 357.373 156.566 353.723 154.75 349.542C152.935 345.361 152.212 340.787 152.65 336.25C152.813 334.281 153.164 332.332 153.7 330.43C154.179 328.78 154.798 327.175 155.55 325.63C156.635 323.39 158.028 321.313 159.69 319.46C160.136 318.954 160.61 318.473 161.11 318.02C161.275 317.854 161.452 317.701 161.64 317.56C161.64 317.56 160.98 318.27 159.84 319.56C158.24 321.442 156.895 323.526 155.84 325.76C154.267 329.052 153.331 332.611 153.08 336.25C152.675 340.707 153.396 345.194 155.179 349.298C156.961 353.403 159.747 356.994 163.28 359.74C164.794 360.959 166.422 362.031 168.14 362.94C169.646 363.734 171.214 364.403 172.83 364.94C175.171 365.699 177.602 366.146 180.06 366.27C181.87 366.34 182.84 366.28 182.84 366.34Z" fill="white"/>
<path d="M61.7703 287.59C61.7703 287.67 61.0003 287.3 59.7703 287.01C58.1244 286.649 56.4182 286.667 54.7799 287.06C53.1415 287.453 51.6134 288.212 50.3103 289.28C49.3103 290.11 48.8303 290.77 48.7603 290.72C49.0347 290.058 49.4592 289.469 50.0003 289C51.2981 287.809 52.8785 286.969 54.5916 286.559C56.3048 286.15 58.0941 286.184 59.7903 286.66C60.513 286.813 61.1906 287.131 61.7703 287.59Z" fill="white"/>
<path d="M209.44 188.16C209.44 188.3 197.16 188.42 182.02 188.42C166.88 188.42 154.59 188.3 154.59 188.16C154.59 188.02 166.87 187.9 182.02 187.9C197.17 187.9 209.44 188 209.44 188.16Z" fill="white"/>
<path d="M162.64 250.69C162.49 250.732 162.336 250.756 162.18 250.76L160.84 250.88C160.26 250.93 159.55 250.97 158.72 250.99C157.89 251.01 156.95 251.05 155.91 250.99C153.82 250.99 151.34 250.84 148.59 250.55C145.614 250.204 142.66 249.693 139.74 249.02C136.827 248.321 133.956 247.46 131.14 246.44C128.846 245.6 126.596 244.642 124.4 243.57C123.4 243.13 122.63 242.67 121.9 242.28C121.17 241.89 120.55 241.54 120.05 241.28L118.9 240.58C118.764 240.505 118.636 240.414 118.52 240.31C118.52 240.31 118.68 240.31 118.95 240.49L120.15 241.1C120.66 241.38 121.29 241.71 122.03 242.1C122.77 242.49 123.61 242.89 124.56 243.31C126.44 244.19 128.73 245.13 131.31 246.06C136.917 248.07 142.735 249.439 148.65 250.14C151.37 250.46 153.84 250.64 155.91 250.69C156.91 250.75 157.91 250.69 158.72 250.69C159.53 250.69 160.25 250.69 160.83 250.69H162.17C162.326 250.664 162.484 250.664 162.64 250.69Z" fill="white"/>
<path d="M242.47 295.75C242.396 295.799 242.315 295.836 242.23 295.86L241.51 296.13L238.73 297.13C237.52 297.57 236.04 298.08 234.29 298.59C232.54 299.1 230.57 299.76 228.34 300.32L224.86 301.24C223.65 301.55 222.37 301.81 221.06 302.12C218.44 302.75 215.6 303.25 212.62 303.82C199.64 306.081 186.449 306.889 173.29 306.23C170.29 306.04 167.38 305.89 164.7 305.58C163.36 305.44 162.06 305.34 160.82 305.17L157.25 304.68C154.97 304.41 152.93 304 151.14 303.68C149.35 303.36 147.8 303.06 146.55 302.77L143.67 302.13L142.92 301.95C142.833 301.936 142.749 301.909 142.67 301.87C142.76 301.862 142.85 301.862 142.94 301.87L143.69 302L146.59 302.55C147.85 302.8 149.39 303.09 151.19 303.36C152.99 303.63 155.02 304.02 157.3 304.27L160.86 304.72C162.1 304.88 163.4 304.97 164.74 305.1C167.41 305.39 170.29 305.52 173.31 305.7C179.36 305.95 186.01 305.96 192.99 305.55C199.97 305.14 206.56 304.27 212.53 303.29C215.53 302.74 218.35 302.29 220.97 301.65C222.28 301.35 223.56 301.1 224.77 300.8L228.25 299.91C230.48 299.38 232.45 298.76 234.2 298.26C235.95 297.76 237.45 297.26 238.66 296.89L241.47 295.99L242.21 295.77L242.47 295.75Z" fill="white"/>
</svg>
